<svg width="263" height="194" viewBox="0 0 263 194" fill="none" xmlns="http://www.w3.org/2000/svg">
<path d="M93 63L91.5 71L92.5 71.5V75V79.5V81.5L94.5 83L97 83.5L102 84V87L101.5 92L103 96.5L104.5 99L114.5 103.5L129.5 107.5L132.5 110L135 111.5L137.5 124.5L140 139.5L141 145H141.5H145L145.5 146.5V148L145 149.5L145.5 152L150 154L151.5 153L150.5 149.5L155.5 148.5L160 149L156 148L152.5 145.5L150 144.5H153L156 143.5L155 124.5L153.5 105.5L152.5 98.5L152 94.5L151 92.5H155L156.5 91.5H162L165.5 91L168.5 90.5L170.5 89L171.5 85.5L171 83L168.5 80L165 78L159.5 76L153.5 73.5L153 77.5L147.5 78L139.5 78.5L129 80L126.5 80.5L126 74V70V67.5L126.5 64L127 61.5V59.5L128 58L133 57.5L132.5 53.5L131.5 52L130 50.5L127.5 50L122 49.5L118.5 48.5L121.5 47.5L122 45.5L122.5 44L123 42V40.5L122.5 38.5V36.5L122 34.5L120.5 33.5L118.5 35L115 33.5V36.5L113 40L111.5 39L111 40L112 42L112.5 43.5L113.5 44V45.5V47.5L110 48.5L105.5 49.5L100.5 50.5L98.5 52L96.5 57L93 63Z" fill="white" stroke="white"/>
<path d="M155.133 92.408L164.924 96.2527C164.417 96.3832 163.918 96.5313 163.414 96.6689L161.923 97.1204C160.927 97.4202 159.939 97.7482 158.954 98.0763C157.97 98.4114 156.986 98.7465 156.013 99.1098C155.054 99.4625 154.093 99.8223 153.15 100.214C152.624 97.0463 151.835 93.6637 150.801 92.8771L155.133 92.408Z" fill="black"/>
<path d="M164.924 96.2527V102.785C163.114 103.575 159.056 104.824 153.935 106.256C153.935 106.256 153.668 103.342 153.15 100.221C154.145 99.9598 155.133 99.6671 156.11 99.3637C157.106 99.0639 158.094 98.7359 159.078 98.4078C160.063 98.0728 161.047 97.7377 162.02 97.3744L163.478 96.8312C163.959 96.6372 164.447 96.4573 164.924 96.2527Z" fill="black"/>
<path d="M94.6621 99.7059C95.034 99.6001 95.3985 99.4837 95.7592 99.3462L95.2595 101.209C94.7734 100.759 94.2577 100.338 93.7153 99.9493C94.0309 99.8753 94.3503 99.7977 94.6621 99.7059Z" fill="black"/>
<path d="M127.917 106.838C122.69 106.048 108.395 101.681 105.821 99.8436C103.927 98.4891 101.759 96.2704 101.478 90.9795C101.064 93.3886 100.64 95.7978 100.204 98.2069L100.189 98.2916C100.509 98.1223 100.853 97.9975 101.211 97.9212C101.613 97.8249 102.03 97.7939 102.443 97.8295C102.091 98.0353 101.703 98.1821 101.297 98.2634C100.932 98.3497 100.554 98.383 100.178 98.3621L99.1519 103.953C100.088 104.549 101.015 105.149 101.932 105.766L103.375 106.732L104.807 107.716C105.761 108.373 106.719 109.022 107.658 109.699C108.597 110.372 109.548 111.029 110.48 111.716L110.484 111.72C110.504 111.738 110.519 111.761 110.525 111.787C111.246 111.593 111.975 111.413 112.7 111.226L115.018 110.669C116.566 110.302 118.118 109.963 119.666 109.611C121.225 109.283 122.777 108.94 124.336 108.63C125.895 108.316 127.454 108.009 129.025 107.741C127.492 108.15 125.944 108.524 124.4 108.891C122.856 109.261 121.3 109.596 119.752 109.953C118.197 110.277 116.645 110.619 115.086 110.933L112.745 111.395C112.005 111.529 111.269 111.671 110.529 111.798C110.529 111.801 110.536 111.805 110.536 111.808C110.671 113.23 110.799 114.651 110.889 116.076C110.652 114.686 110.453 113.293 110.262 111.896C109.311 111.265 108.383 110.609 107.444 109.967C106.486 109.318 105.547 108.641 104.604 107.974L103.187 106.969L101.789 105.946C100.899 105.3 100.02 104.637 99.1482 103.967L98.8475 105.611C98.84 105.65 98.816 105.686 98.7808 105.709C98.7456 105.732 98.702 105.741 98.6597 105.734C98.6505 105.733 98.6416 105.731 98.6335 105.727L94.5608 104.397C94.5197 104.383 94.4857 104.355 94.4649 104.318C94.4442 104.282 94.4382 104.24 94.448 104.2L95.2445 101.258C94.5487 100.901 93.8808 100.498 93.2458 100.052C92.746 100.39 92.2538 100.732 91.7504 101.068C91.2019 101.424 90.6607 101.791 90.1047 102.143C90.6158 101.738 91.1342 101.343 91.6527 100.944C92.1337 100.574 92.622 100.214 93.1104 99.8506C93.1141 99.8246 93.123 99.7994 93.1368 99.7766C92.8475 98.7325 92.5919 97.6814 92.3252 96.6302C92.0434 95.5438 91.7842 94.4504 91.5325 93.3569C91.2694 92.2635 91.0177 91.17 90.7847 90.0695C90.5406 88.9725 90.3151 87.8756 90.1047 86.7715C90.4279 87.8509 90.7359 88.9337 91.0214 90.0201C91.3221 91.103 91.6 92.1929 91.8706 93.2829C92.1485 94.3728 92.4191 95.4627 92.6671 96.5562C92.9113 97.5932 93.1594 98.6302 93.3846 99.6708C93.7868 99.5826 94.1887 99.5014 94.5945 99.4344C94.9853 99.3709 95.376 99.3216 95.7743 99.2898L96.2139 97.6708L98.0022 91.1418L98.006 91.1312V91.1277C98.2305 90.5571 98.4076 89.971 98.5357 89.3747C98.6824 88.7944 98.6786 88.1896 98.5245 87.611C98.4302 87.3361 98.2589 87.09 98.0286 86.8985C97.9075 86.8032 97.7795 86.7159 97.6454 86.6375L97.435 86.507L97.326 86.4223C97.311 86.4188 97.2998 86.4082 97.2583 86.3941C96.6279 86.2593 95.9872 86.1709 95.3421 86.1296C92.7271 85.9073 90.101 85.7768 87.4785 85.6428C88.7897 85.6604 90.1047 85.6957 91.4197 85.7416C92.7347 85.7874 94.046 85.8368 95.361 85.932C95.6879 85.9567 96.0185 85.9849 96.3454 86.0202C96.6832 86.0448 97.0178 86.0991 97.3447 86.1825C97.3991 86.1987 97.45 86.2238 97.4951 86.2565L97.5777 86.3201L97.7806 86.44C97.9268 86.5216 98.0662 86.6136 98.1976 86.7151C98.467 86.9312 98.6695 87.2115 98.7837 87.5264C98.9635 88.1457 98.9828 88.7963 98.84 89.4241C98.7183 90.0364 98.5424 90.6381 98.3141 91.223L96.5632 97.7519L94.8275 104.136L98.5621 105.378L99.9936 98.1717C100.478 95.7661 100.973 93.3617 101.478 90.9584C101.394 88.6433 101.568 86.3263 101.996 84.045L95.1168 83.3677C94.4237 83.3081 93.7673 83.048 93.2383 82.6235C92.6752 82.5462 92.117 82.4402 91.5663 82.306C91.4235 82.2743 91.2808 82.239 91.1379 82.1967C91.0665 82.1755 90.9952 82.1543 90.9201 82.1296C90.9117 82.1261 90.9028 82.1237 90.8937 82.1226H90.8825C90.8571 82.1252 90.8319 82.1299 90.8073 82.1367C90.5421 82.2146 90.2854 82.3162 90.0408 82.44C89.5224 82.6764 89.0115 82.9374 88.493 83.1843C87.9783 83.4418 87.4521 83.6852 86.9186 83.918C87.8348 83.2243 88.8259 82.6225 89.8756 82.1226C90.1496 81.992 90.4365 81.8869 90.7323 81.8087C90.7805 81.7997 90.8295 81.795 90.8787 81.7945C90.9379 81.7977 90.9962 81.8096 91.0515 81.8298C91.1117 81.858 91.1794 81.8792 91.2432 81.9039L91.6527 82.045C92.175 82.2178 92.6973 82.4012 93.2157 82.6023C92.6709 82.1155 92.2801 81.3289 92.5094 80.045L92.8587 71.3362L91.4498 71.0646C91.4498 71.0646 90.4129 71.2833 92.4604 65.7313L95.7329 56.8955C95.7329 56.8955 82.8797 58.384 82.4139 58.8214C81.948 59.2588 85.1153 88.7327 89.4962 102.814C89.4962 102.814 109.431 116.196 110.641 116.633C111.231 116.842 122.281 114.355 134.353 111.367C134.353 111.367 133.139 107.628 127.917 106.838ZM85.784 65.4385C85.4796 63.7031 85.1866 61.9677 84.9311 60.2252C85.3369 61.943 85.7051 63.6678 86.0658 65.3927C86.4266 67.1175 86.7572 68.8494 87.1028 70.5778C87.4184 72.3097 87.7528 74.0416 88.0533 75.777L88.5004 78.3801C88.6358 79.2513 88.7822 80.119 88.9062 80.9903C88.6996 80.1332 88.5154 79.2725 88.3164 78.4118L87.7678 75.8228C87.4071 74.098 87.0802 72.3661 86.7346 70.6377C86.4189 68.9059 86.0846 67.1775 85.784 65.4385Z" fill="black"/>
<path d="M120.519 45.0015C119.835 45.0015 118.963 45.3507 118.095 45.5271C117.227 45.7034 115.24 45.3507 115.052 44.8287C114.864 44.3031 113.692 39.9716 113.5 40.1762C113.313 40.3808 112.941 40.7441 112.941 40.7441C112.941 40.7441 112.877 46.0209 113.001 46.5888C113.129 47.1602 115.424 50.0173 118.839 49.7245C122.255 49.4318 122.754 45.6435 122.754 45.6435C122.754 45.6435 121.199 45.0015 120.519 45.0015ZM121.082 46.5676C120.832 46.7127 120.538 46.7793 120.245 46.7581C119.959 46.7376 119.683 46.6555 119.437 46.5182C119.198 46.3881 118.993 46.2083 118.839 45.9927C119.285 46.2095 119.769 46.3504 120.267 46.4089C120.5 46.4253 120.735 46.3953 120.955 46.3207C121.193 46.2339 121.421 46.124 121.635 45.9927C121.515 46.2313 121.323 46.4313 121.082 46.5676Z" fill="black"/>
<path d="M112.941 40.7456C112.941 40.7456 116.046 38.0052 115.797 34.6234C115.797 34.6234 116.605 33.9237 117.909 35.0898C117.909 35.0898 119.027 35.3814 120.331 34.0986C121.635 32.8159 122.319 34.6817 122.319 34.6817C122.319 34.6817 123.002 36.6641 123.188 36.1394C123.374 35.6146 123.685 33.1074 120.89 32.2911C118.717 31.6833 116.445 31.4464 114.183 31.5914C113.437 31.7081 111.885 32.8742 111.885 34.5068C111.885 36.1394 111.139 38.1801 111.202 38.8215C111.264 39.4628 112.941 40.7456 112.941 40.7456Z" fill="black"/>
<path d="M115.735 40.046C116.338 39.83 116.984 39.7449 117.627 39.7972C117.95 39.8233 118.268 39.8884 118.573 39.9911C118.877 40.0959 119.157 40.253 119.399 40.4542C119.113 40.3378 118.817 40.2435 118.514 40.1723C118.215 40.1078 117.911 40.0633 117.605 40.0392C116.982 39.9992 116.357 40.0015 115.735 40.046Z" fill="black"/>
<path d="M121.014 40.1764C121.263 39.9203 121.57 39.7194 121.912 39.5883C122.252 39.4376 122.634 39.3936 123.002 39.4628C122.666 39.5634 122.335 39.68 122.012 39.8122C121.688 39.9371 121.369 40.0729 121.014 40.1764Z" fill="black"/>
<path d="M118.095 41.285C118.196 41.2817 118.291 41.2419 118.361 41.1739C118.431 41.1059 118.47 41.0151 118.47 40.9206C118.47 40.826 118.431 40.7352 118.361 40.6672C118.291 40.5992 118.196 40.5594 118.095 40.5562C117.995 40.5594 117.899 40.5992 117.829 40.6672C117.759 40.7352 117.72 40.826 117.72 40.9206C117.72 41.0151 117.759 41.1059 117.829 41.1739C117.899 41.2419 117.995 41.2817 118.095 41.285Z" fill="black"/>
<path d="M122.07 41.0516C122.171 41.0483 122.266 41.0085 122.336 40.9405C122.406 40.8725 122.445 40.7817 122.445 40.6872C122.445 40.5926 122.406 40.5018 122.336 40.4338C122.266 40.3658 122.171 40.326 122.07 40.3228C121.969 40.326 121.874 40.3658 121.804 40.4338C121.734 40.5018 121.695 40.5926 121.695 40.6872C121.695 40.7817 121.734 40.8725 121.804 40.9405C121.874 41.0085 121.969 41.0483 122.07 41.0516Z" fill="black"/>
<path d="M111.201 38.8215C111.066 38.8745 110.944 38.9554 110.846 39.0583C110.748 39.1613 110.676 39.2836 110.635 39.4162C110.557 39.6781 110.557 39.9554 110.637 40.2171C110.818 40.7525 111.031 41.2778 111.275 41.7904C111.494 42.3264 111.666 42.8779 111.791 43.4398C111.841 43.7035 111.98 43.9452 112.187 44.1294C112.298 44.2198 112.428 44.2872 112.568 44.3271C112.709 44.3669 112.857 44.3784 113.002 44.3606C112.852 44.402 112.693 44.411 112.538 44.387C112.383 44.363 112.236 44.3066 112.107 44.222C111.854 44.0322 111.674 43.7694 111.595 43.4742C111.443 42.931 111.256 42.3972 111.033 41.8758C110.93 41.6109 110.824 41.3464 110.711 41.0842C110.587 40.8176 110.497 40.5383 110.442 40.252C110.379 39.9588 110.405 39.6549 110.517 39.3748C110.577 39.2385 110.67 39.1173 110.789 39.0211C110.907 38.9249 111.049 38.8566 111.201 38.8215Z" fill="black"/>
<path d="M121.325 42.7864C121.473 43.1553 121.468 43.563 121.312 43.9288C121.226 44.1247 121.066 44.2837 120.862 44.3753C120.662 44.4504 120.439 44.4522 120.238 44.3803C120.425 44.3579 120.604 44.2994 120.766 44.2086C120.904 44.1116 121.011 43.9809 121.075 43.8308C121.205 43.4938 121.289 43.1429 121.325 42.7864Z" fill="black"/>
<path d="M123.188 36.1394C123.135 36.94 123.134 37.7429 123.183 38.5437C123.209 38.9409 123.257 39.3364 123.329 39.7285C123.404 40.1133 123.524 40.5074 123.596 40.9094C123.742 41.7165 123.732 42.5417 123.568 43.3458C123.389 44.138 123.116 44.9087 122.753 45.6434C123.021 44.8824 123.227 44.1039 123.372 43.3142C123.502 42.5298 123.492 41.7304 123.341 40.9493C123.279 40.5565 123.17 40.1732 123.097 39.7658C123.027 39.3644 122.989 38.9585 122.985 38.5517C122.969 37.7433 123.037 36.9353 123.188 36.1394Z" fill="black"/>
<path d="M113.003 46.5891C112.951 47.0556 112.766 47.5003 112.467 47.8759C112.314 48.0667 112.127 48.2309 111.914 48.361C111.699 48.4862 111.451 48.5545 111.198 48.5586C111.413 48.4671 111.614 48.3491 111.796 48.2076C111.967 48.063 112.122 47.903 112.26 47.7298C112.4 47.5538 112.53 47.3702 112.647 47.18C112.765 46.9875 112.887 46.793 113.003 46.5891Z" fill="black"/>
<path d="M112.759 47.2123C110.871 47.5722 109.024 48.0987 107.242 48.7849C106.319 49.0997 105.353 49.2925 104.373 49.3576C103.42 49.4098 102.471 49.5121 101.531 49.6641C101.319 49.7075 101.115 49.7819 100.928 49.8845C100.712 50.0099 100.485 50.1167 100.249 50.2034C99.8192 50.3532 99.4234 50.5774 99.0822 50.8645C98.4307 51.5008 97.8952 52.2334 97.4971 53.0328C97.2714 53.4272 97.0912 53.8451 96.8929 54.2545C96.7136 54.6722 96.5334 55.0904 96.3651 55.5132C96.2064 55.9395 96.0381 56.363 95.8869 56.7922L95.4558 58.0873L95.4548 58.0904L95.453 58.0954C94.5547 60.2053 93.7384 62.3445 93.0042 64.5131C92.6405 65.5963 92.2968 66.6859 92.0034 67.784C91.8587 68.3331 91.7222 68.884 91.62 69.4357C91.568 69.708 91.5323 69.9829 91.513 70.2589C91.5046 70.3897 91.5068 70.5208 91.5196 70.6513C91.5226 70.7426 91.5519 70.8315 91.6043 70.9085L91.4975 70.8572C93.6316 71.251 95.7671 71.6437 97.9056 72.0144L101.111 72.5756L102.715 72.8299C103.235 72.9148 103.76 72.9752 104.287 73.0108L104.443 73.0123C104.443 73.0043 104.439 73.0131 104.449 73.0076C104.459 72.9975 104.471 72.9887 104.484 72.9814C104.555 72.9038 104.615 72.8172 104.661 72.7242C104.77 72.5055 104.86 72.2789 104.931 72.0465C105.075 71.5629 105.19 71.0721 105.276 70.5764C105.457 69.5792 105.554 68.5659 105.629 67.552C105.697 66.5372 105.719 65.52 105.695 64.5003C105.679 63.4817 105.615 62.4627 105.493 61.4479C105.492 61.4416 105.494 61.4354 105.498 61.4305C105.503 61.4256 105.508 61.4223 105.515 61.4215C105.522 61.4206 105.528 61.4221 105.534 61.4257C105.539 61.4294 105.543 61.4348 105.544 61.441C105.726 62.4496 105.852 63.4683 105.928 64.491C105.995 65.5142 106.015 66.5396 105.988 67.5671C105.961 68.596 105.871 69.6225 105.719 70.6416C105.642 71.1563 105.536 71.6667 105.399 72.1702C105.326 72.4309 105.231 72.6857 105.115 72.9318C105.049 73.0721 104.961 73.2022 104.854 73.3179C104.816 73.3511 104.774 73.3835 104.732 73.4138C104.676 73.4457 104.616 73.4705 104.553 73.4876C104.465 73.4957 104.385 73.4955 104.301 73.4979C103.742 73.4671 103.186 73.4074 102.634 73.3192L101.018 73.0708C99.9444 72.8925 98.8716 72.714 97.803 72.516C95.6668 72.1158 93.5343 71.7014 91.4055 71.2728L91.3877 71.2692C91.3535 71.2623 91.3224 71.2456 91.2987 71.2214C91.1616 71.0749 91.0842 70.8876 91.0801 70.6926C91.0684 70.5396 91.0692 70.3859 91.0826 70.2331C91.1099 69.9421 91.1546 69.6528 91.2164 69.3665C91.3345 68.7998 91.4875 68.2455 91.6569 67.6965C91.9947 66.5987 92.3804 65.5183 92.7779 64.4426C93.1821 63.369 93.5889 62.2972 94.0076 61.2294L95.2754 58.03L95.2726 58.0379C95.7565 56.2741 96.3851 54.5482 97.1528 52.8755C97.5383 52.0151 98.0899 51.2291 98.7797 50.5569C99.1554 50.2334 99.5918 49.9781 100.067 49.8041C100.279 49.7237 100.485 49.6286 100.683 49.5198C100.914 49.395 101.164 49.3055 101.425 49.2548C102.388 49.1096 103.36 49.0168 104.335 48.9769C104.811 48.9376 105.286 48.8898 105.753 48.8096C106.22 48.742 106.68 48.635 107.127 48.4899C108.941 47.8463 110.828 47.4015 112.751 47.1643C112.757 47.1634 112.764 47.1651 112.77 47.1689C112.775 47.1728 112.779 47.1786 112.78 47.1849C112.781 47.1911 112.779 47.1974 112.775 47.2024C112.771 47.2075 112.765 47.211 112.759 47.2123Z" fill="black"/>
<path d="M118.852 52.2669C118.809 52.4791 118.799 52.6958 118.82 52.9108C118.834 53.1283 118.849 53.3456 118.871 53.5627L119.012 54.8643C119.114 55.7315 119.236 56.5968 119.349 57.4631L119.528 58.7612C119.642 59.2178 119.567 59.6977 119.32 60.105C119.239 60.2018 119.138 60.2826 119.023 60.3427C118.909 60.4029 118.783 60.4412 118.652 60.4554C118.522 60.4697 118.389 60.4597 118.263 60.4259C118.137 60.3922 118.019 60.3353 117.916 60.2587C117.813 60.183 117.728 60.0882 117.665 59.9803C117.602 59.8724 117.564 59.7536 117.552 59.6312L117.477 58.9806C117.373 58.1136 117.263 57.2469 117.122 56.3851C117.055 55.9546 116.963 55.5279 116.848 55.1065C116.82 55.0039 116.781 54.9041 116.732 54.8086C116.722 54.7874 116.707 54.7685 116.689 54.7536C116.67 54.7387 116.648 54.728 116.624 54.7225L116.464 54.6576C116.251 54.5713 116.035 54.4902 115.818 54.4114C114.952 54.0946 114.08 53.7917 113.2 53.5141C112.763 53.3844 112.31 53.1991 111.89 53.3289C111.695 53.4168 111.534 53.5583 111.426 53.7345C111.319 53.9108 111.271 54.1135 111.289 54.3158C111.289 54.3387 111.279 54.3606 111.261 54.3765C111.244 54.3924 111.22 54.4012 111.196 54.4008C111.18 54.4005 111.164 54.3963 111.15 54.3886C111.137 54.381 111.125 54.3702 111.117 54.3572C110.873 53.959 110.599 53.578 110.296 53.2171C110.004 52.8551 109.661 52.531 109.278 52.2534C109.09 52.121 108.881 52.0185 108.658 51.9501C108.413 51.8775 108.178 51.7795 107.956 51.658C107.504 51.4154 107.122 51.0728 106.844 50.6601C106.84 50.6544 106.837 50.6482 106.835 50.6418L106.832 50.6343C106.763 50.3915 106.796 50.1328 106.926 49.913C107.046 49.7101 107.204 49.5287 107.391 49.3771C107.75 49.0886 108.146 48.843 108.57 48.6458C109.4 48.2505 110.269 47.932 111.165 47.6947C111.188 47.6886 111.212 47.689 111.235 47.696C111.257 47.7031 111.277 47.7163 111.291 47.734C111.305 47.7518 111.314 47.7731 111.315 47.7954C111.316 47.8176 111.31 47.8396 111.297 47.8585L111.294 47.8637C111.15 48.0909 111.058 48.3431 111.021 48.605C111 48.7383 110.988 48.8727 110.986 49.0075C110.999 49.1421 110.998 49.2785 111.023 49.4123C111.12 49.9554 111.336 50.4736 111.659 50.9335C111.817 51.1676 111.987 51.3938 112.17 51.6111C112.37 51.8157 112.558 52.0317 112.766 52.2296C112.982 52.4208 113.187 52.6241 113.412 52.8063L114.097 53.3446C114.098 53.3456 114.1 53.3468 114.1 53.3481C114.101 53.3495 114.102 53.351 114.102 53.3526C114.102 53.3542 114.102 53.3558 114.102 53.3573C114.102 53.3589 114.101 53.3603 114.1 53.3616C114.098 53.3641 114.095 53.3657 114.091 53.3662C114.088 53.3666 114.084 53.3659 114.082 53.3641L113.37 52.8527C113.135 52.679 112.92 52.4831 112.694 52.2988C112.472 52.1095 112.278 51.8929 112.07 51.6898C111.878 51.4722 111.698 51.2451 111.531 51.0097C111.184 50.5382 110.946 50.0038 110.832 49.4409C110.802 49.2999 110.799 49.1543 110.783 49.0108C110.781 48.8657 110.79 48.7206 110.809 48.5766C110.843 48.2809 110.943 47.9951 111.101 47.7377L111.23 47.9066C110.357 48.1599 109.509 48.4811 108.693 48.8668C108.29 49.0557 107.914 49.2904 107.573 49.5656C107.403 49.6749 107.269 49.8259 107.184 50.002C107.099 50.1781 107.068 50.3726 107.093 50.5644L107.082 50.5387C107.334 50.914 107.678 51.2269 108.086 51.4514C108.291 51.5661 108.508 51.6591 108.734 51.7286C108.981 51.8069 109.213 51.9227 109.42 52.0714C109.819 52.3634 110.172 52.7075 110.467 53.0932C110.768 53.4683 111.039 53.8635 111.278 54.2756L111.106 54.3169C111.113 54.0846 111.174 53.8565 111.286 53.6493C111.341 53.5419 111.419 53.4462 111.515 53.3678C111.611 53.2895 111.722 53.2302 111.843 53.1934C112.345 53.0571 112.811 53.2709 113.241 53.4013C114.12 53.6928 114.987 54.0088 115.849 54.3388L116.496 54.5871L116.657 54.6505C116.689 54.6599 116.719 54.6751 116.744 54.6955C116.77 54.7158 116.791 54.7408 116.806 54.7689C116.86 54.8694 116.903 54.9747 116.934 55.0831C117.063 55.507 117.144 55.9379 117.23 56.3678C117.399 57.2281 117.537 58.0927 117.667 58.9582L117.762 59.6077C117.772 59.7034 117.803 59.7961 117.852 59.8802C117.902 59.9643 117.969 60.038 118.05 60.0967C118.211 60.2151 118.415 60.2689 118.618 60.2464C118.822 60.2239 119.007 60.1268 119.134 59.9764C119.246 59.8062 119.315 59.6137 119.334 59.4142C119.358 59.2052 119.35 58.9943 119.311 58.7874L119.146 57.486C119.037 56.6182 118.95 55.7481 118.871 54.8771C118.831 54.4417 118.798 54.0055 118.78 53.5682C118.769 53.3498 118.765 53.1309 118.762 52.9121C118.75 52.6912 118.773 52.47 118.829 52.2553C118.83 52.2523 118.832 52.2499 118.835 52.2485C118.838 52.247 118.842 52.2467 118.845 52.2477C118.848 52.2486 118.851 52.2507 118.852 52.2534C118.854 52.2562 118.854 52.2594 118.853 52.2624L118.852 52.2669Z" fill="black"/>
<path d="M120.016 49.4529C120.198 49.6947 120.359 49.9501 120.496 50.2166C120.565 50.3506 120.615 50.4933 120.675 50.6323C120.725 50.7764 120.761 50.9241 120.784 51.0739C120.842 51.381 120.815 51.6967 120.706 51.9913C120.584 52.293 120.351 52.5442 120.05 52.7C120.038 52.7059 120.025 52.7096 120.012 52.7108C119.999 52.7121 119.986 52.7109 119.973 52.7073C119.96 52.7037 119.948 52.6978 119.938 52.6899C119.928 52.6819 119.919 52.6722 119.913 52.6612C119.907 52.6505 119.903 52.6389 119.901 52.6268L119.901 52.6235C119.859 52.2002 119.763 51.7832 119.615 51.3815C119.541 51.1832 119.424 51.0014 119.271 50.8474C119.197 50.7777 119.101 50.7316 118.997 50.7156C118.947 50.7215 118.898 50.737 118.853 50.761C118.809 50.785 118.77 50.8171 118.739 50.8554C118.482 51.2038 118.296 51.594 118.19 52.0061C118.059 52.4144 117.95 52.832 117.854 53.2471L117.856 53.2074L117.973 53.9648C117.978 53.9973 117.969 54.0304 117.949 54.0571C117.928 54.0838 117.898 54.102 117.863 54.1078C117.829 54.1136 117.793 54.1066 117.764 54.0882C117.735 54.0699 117.715 54.0416 117.707 54.0095L117.707 54.0067C117.635 53.6502 117.594 53.2891 117.583 52.9266C117.562 52.5671 117.572 52.2084 117.59 51.851C117.622 51.1369 117.701 50.4253 117.826 49.7202C117.827 49.7171 117.829 49.7142 117.831 49.7123C117.834 49.7104 117.838 49.7097 117.841 49.7102C117.844 49.7107 117.847 49.7123 117.849 49.7146C117.851 49.7169 117.852 49.7198 117.852 49.7228C117.827 50.4352 117.815 51.146 117.815 51.855C117.805 52.5581 117.857 53.2608 117.971 53.9557L117.705 53.9976L117.611 53.2374L117.611 53.2335C117.609 53.2215 117.61 53.2093 117.613 53.1976C117.721 52.7748 117.855 52.3584 118.015 51.9505C118.162 51.5332 118.384 51.1425 118.671 50.7955C118.711 50.7492 118.761 50.7112 118.818 50.6837C118.874 50.6562 118.936 50.6398 118.999 50.6356C119.123 50.6544 119.237 50.7096 119.325 50.7933C119.492 50.9502 119.623 51.138 119.708 51.3448C119.894 51.7465 120.028 52.1672 120.109 52.5985L119.96 52.522C120.202 52.3784 120.389 52.165 120.492 51.9138C120.597 51.6536 120.629 51.3725 120.586 51.0972C120.578 50.9565 120.531 50.8188 120.509 50.6776C120.462 50.5414 120.425 50.4008 120.369 50.2661C120.307 50.1338 120.259 49.9948 120.194 49.8626L119.994 49.4655C119.993 49.4641 119.993 49.4626 119.992 49.461C119.992 49.4594 119.992 49.4578 119.993 49.4562C119.993 49.4547 119.994 49.4533 119.995 49.452C119.996 49.4508 119.998 49.4498 119.999 49.449C120.002 49.4477 120.005 49.4474 120.008 49.4481C120.011 49.4488 120.014 49.4505 120.016 49.4529Z" fill="black"/>
<path d="M118.142 55.2493C118.243 55.2461 118.338 55.2062 118.408 55.1383C118.478 55.0703 118.517 54.9794 118.517 54.8849C118.517 54.7904 118.478 54.6996 118.408 54.6316C118.338 54.5636 118.243 54.5238 118.142 54.5205C118.041 54.5238 117.946 54.5636 117.876 54.6316C117.806 54.6996 117.767 54.7904 117.767 54.8849C117.767 54.9794 117.806 55.0703 117.876 55.1383C117.946 55.2062 118.041 55.2461 118.142 55.2493Z" fill="black"/>
<path d="M118.421 57.2611C118.522 57.2578 118.617 57.218 118.687 57.15C118.757 57.082 118.796 56.9912 118.796 56.8966C118.796 56.8021 118.757 56.7113 118.687 56.6433C118.617 56.5753 118.522 56.5355 118.421 56.5322C118.321 56.5355 118.225 56.5753 118.155 56.6433C118.085 56.7113 118.046 56.8021 118.046 56.8966C118.046 56.9912 118.085 57.082 118.155 57.15C118.225 57.218 118.321 57.2578 118.421 57.2611Z" fill="black"/>
<path d="M118.654 59.1851C118.755 59.1819 118.85 59.1421 118.92 59.0741C118.99 59.0061 119.029 58.9152 119.029 58.8207C119.029 58.7262 118.99 58.6354 118.92 58.5674C118.85 58.4994 118.755 58.4596 118.654 58.4563C118.554 58.4596 118.458 58.4994 118.388 58.5674C118.318 58.6354 118.279 58.7262 118.279 58.8207C118.279 58.9152 118.318 59.0061 118.388 59.0741C118.458 59.1421 118.554 59.1819 118.654 59.1851Z" fill="black"/>
<path d="M121.129 48.7693C122.681 48.8055 124.231 48.9022 125.777 49.0514C126.55 49.1217 127.32 49.2235 128.088 49.3462C128.87 49.4484 129.634 49.6438 130.363 49.9274C130.458 49.9719 130.548 50.0269 130.63 50.0912C130.705 50.1551 130.776 50.2231 130.843 50.2949C130.971 50.4252 131.111 50.5498 131.25 50.6782C131.537 50.9337 131.796 51.2156 132.023 51.5196C132.457 52.1382 132.78 52.8198 132.978 53.5371C133.368 54.9521 133.609 56.3995 133.699 57.8587C133.511 56.4163 133.206 54.9895 132.787 53.5907C132.575 52.9006 132.252 52.245 131.83 51.6463C131.608 51.356 131.356 51.0873 131.077 50.8444C130.938 50.7186 130.795 50.5936 130.659 50.4581C130.546 50.3261 130.404 50.2185 130.243 50.1424C129.54 49.8641 128.802 49.6695 128.047 49.5634C127.288 49.4311 126.52 49.3351 125.753 49.2362C124.218 49.0489 122.674 48.9055 121.129 48.7693Z" fill="black"/>
<path d="M99.8359 51.8513C100.551 51.7092 101.296 51.79 101.958 52.0816C102.622 52.3806 103.188 52.8402 103.6 53.413C103.806 53.6947 103.985 53.9927 104.135 54.3035C104.278 54.615 104.403 54.9335 104.509 55.2575C104.587 55.5879 104.683 55.9136 104.745 56.2449C104.785 56.5801 104.834 56.9129 104.867 57.2463C104.776 56.9204 104.703 56.5938 104.621 56.2696C104.535 55.9466 104.419 55.6317 104.32 55.3139C104.187 55.0075 104.07 54.6949 103.922 54.3971C103.77 54.1018 103.592 53.8193 103.389 53.5526C103.007 53.0052 102.485 52.5568 101.871 52.2487C101.246 51.9403 100.541 51.8026 99.8359 51.8513Z" fill="black"/>
<path d="M109.028 67.2168C109.206 67.6627 109.394 68.1038 109.613 68.5322C109.82 68.9651 110.046 69.3888 110.287 69.8051C110.763 70.6386 111.307 71.4363 111.914 72.191C112.512 72.9502 113.193 73.6491 113.945 74.2764L114.519 74.7365C114.716 74.8836 114.928 75.0112 115.132 75.1508L115.438 75.3601C115.545 75.4238 115.656 75.4804 115.764 75.541L116.418 75.9045C115.48 75.5287 114.603 75.0282 113.816 74.4184C113.031 73.8022 112.324 73.104 111.708 72.3373C111.1 71.5671 110.566 70.7484 110.111 69.8904C109.655 69.0356 109.292 68.1399 109.028 67.2168Z" fill="black"/>
<path d="M92.8592 71.3362C92.8479 72.7892 92.8138 74.2414 92.7886 75.694C92.7677 77.1467 92.7153 78.5982 92.68 80.0504L92.679 80.0627L92.6768 80.0761C92.5823 80.6565 92.6612 81.25 92.9047 81.7907C93.1632 82.3132 93.6271 82.7215 94.1992 82.9299C94.3462 82.9747 94.4901 83.0265 94.6387 83.0672L95.0997 83.1509C95.4189 83.1951 95.7483 83.2275 96.0738 83.2609C96.727 83.3261 97.3815 83.3842 98.0373 83.4351C100.659 83.6419 103.29 83.7481 105.919 83.8033C108.547 83.8601 111.176 83.7785 113.794 83.5589C116.396 83.3231 119.039 82.9488 121.402 81.8861C121.425 81.8758 121.452 81.8738 121.476 81.8805C121.501 81.8872 121.522 81.9021 121.536 81.9224C121.722 82.195 121.98 82.4176 122.285 82.5688C122.596 82.7229 122.939 82.8105 123.291 82.8254C123.647 82.838 124.003 82.8027 124.349 82.7206C124.52 82.6733 124.692 82.624 124.863 82.571L125.362 82.3766L124.874 82.5971C124.706 82.6591 124.536 82.7178 124.365 82.7747C124.016 82.8772 123.652 82.929 123.287 82.9283C122.911 82.933 122.54 82.8523 122.205 82.6932C121.87 82.5341 121.581 82.3012 121.363 82.0145L121.496 82.0508C120.315 82.6286 119.057 83.0577 117.757 83.327C116.464 83.6056 115.156 83.8144 113.838 83.9524C111.205 84.2049 108.558 84.3111 105.912 84.2704C103.268 84.2545 100.628 84.097 97.996 83.8765C97.3379 83.8205 96.6803 83.7571 96.0232 83.6861C95.6938 83.6495 95.3675 83.615 95.0351 83.5666L94.5261 83.4697C94.359 83.4233 94.1945 83.3635 94.0292 83.3102C93.3623 83.0532 92.8289 82.5615 92.5432 81.9401C92.2831 81.3285 92.212 80.6604 92.338 80.0126L92.3348 80.0381C92.4167 78.5876 92.4816 77.1365 92.5781 75.6865C92.67 74.2363 92.7532 72.7858 92.8592 71.3362Z" fill="black"/>
<path d="M102.445 73.042C102.488 73.8407 102.513 74.6393 102.542 75.438L102.484 75.3546C105.477 76.362 108.619 76.9248 111.797 77.0227C113.377 77.0677 114.957 76.9515 116.51 76.6761L117.666 76.4412C118.048 76.3503 118.419 76.2214 118.796 76.1135L119.361 75.9476C119.545 75.882 119.724 75.8036 119.906 75.7323L120.996 75.2939L120.904 75.4251C120.946 75.1826 121.048 74.9524 121.2 74.7524C121.342 74.5585 121.518 74.3893 121.721 74.2522C122.118 73.988 122.575 73.8129 123.055 73.7405C123.289 73.7022 123.524 73.6754 123.76 73.6602C123.996 73.6602 124.232 73.6411 124.466 73.6573C124.7 73.6754 124.935 73.6753 125.166 73.7088L125.859 73.8054L125.161 73.7687C124.929 73.7578 124.697 73.7679 124.466 73.7662C124.234 73.7649 124.005 73.7988 123.775 73.8132C123.549 73.8425 123.324 73.8829 123.101 73.9341C122.665 74.0316 122.255 74.2128 121.897 74.4663C121.557 74.7061 121.325 75.0577 121.249 75.4508L121.247 75.4616C121.244 75.4871 121.233 75.5113 121.218 75.5323C121.202 75.5533 121.181 75.5704 121.156 75.5821C119.725 76.2961 118.193 76.8171 116.607 77.1299C115.02 77.4315 113.4 77.555 111.782 77.498C110.17 77.4427 108.566 77.2468 106.993 76.9131C106.209 76.7408 105.431 76.5462 104.666 76.3156C103.896 76.0953 103.141 75.83 102.407 75.5214L102.402 75.5195C102.386 75.5125 102.372 75.5009 102.362 75.4864C102.353 75.4719 102.348 75.455 102.348 75.4379C102.378 74.6393 102.402 73.8407 102.445 73.042Z" fill="black"/>
<path d="M94.9297 77.278C95.3353 76.7534 95.8525 76.3136 96.4487 75.9865C97.0453 75.6548 97.6912 75.4083 98.3652 75.2552C98.7041 75.1907 99.047 75.1458 99.3919 75.1206C99.7352 75.0891 100.081 75.0839 100.425 75.105C100.769 75.1121 101.108 75.1773 101.448 75.2118C101.784 75.2794 102.117 75.356 102.445 75.4381C102.104 75.4098 101.769 75.3571 101.432 75.3298C101.093 75.3199 100.757 75.2761 100.42 75.2919C99.7484 75.2888 99.0785 75.3559 98.4228 75.4917C97.7693 75.6313 97.1385 75.852 96.5471 76.148C95.9473 76.4413 95.4012 76.8228 94.9297 77.278Z" fill="black"/>
<path d="M121.076 75.438C121.179 75.6495 121.302 75.8524 121.441 76.0445C121.573 76.2325 121.743 76.3945 121.941 76.5214C121.99 76.5488 122.041 76.5722 122.095 76.5915C122.167 76.6169 122.232 76.6571 122.286 76.7092C122.334 76.7675 122.365 76.8361 122.378 76.9088C122.39 76.9815 122.383 77.056 122.357 77.1255C122.273 77.363 122.135 77.5808 121.954 77.7646L121.952 77.766L121.945 77.7727C121.752 77.9438 121.606 78.1567 121.521 78.3929C121.482 78.5043 121.47 78.6225 121.485 78.739C121.501 78.8554 121.544 78.9671 121.612 79.0658C121.737 79.2574 122.012 79.4441 122.118 79.7383C122.151 79.8142 122.165 79.8959 122.161 79.9777C122.156 80.0594 122.133 80.1393 122.092 80.2117C122.003 80.3456 121.87 80.4482 121.713 80.5036L121.747 80.4812C121.544 80.6833 121.388 80.9236 121.29 81.1863C121.243 81.3173 121.228 81.4569 121.248 81.5941C121.281 81.7327 121.35 81.8614 121.449 81.9683C121.327 81.8735 121.237 81.7484 121.187 81.6075C121.148 81.4606 121.145 81.3073 121.18 81.1594C121.213 81.0124 121.269 80.871 121.348 80.7401C121.423 80.6074 121.511 80.4818 121.612 80.3652C121.618 80.3582 121.625 80.3526 121.634 80.3486L121.646 80.3428C121.756 80.295 121.846 80.2158 121.905 80.1167C121.928 80.0687 121.94 80.0166 121.94 79.964C121.94 79.9113 121.928 79.8592 121.905 79.8111C121.821 79.584 121.594 79.4432 121.405 79.1907C121.313 79.0645 121.254 78.9206 121.23 78.7697C121.212 78.6186 121.229 78.4657 121.281 78.3216C121.385 78.0478 121.56 77.8028 121.791 77.609L121.783 77.617C121.943 77.4585 122.069 77.273 122.156 77.0703C122.176 77.0309 122.185 76.9874 122.183 76.9437C122.181 76.9 122.168 76.8574 122.144 76.8198C122.112 76.7864 122.073 76.7595 122.03 76.7409C121.969 76.7141 121.91 76.6825 121.855 76.6465C121.647 76.4994 121.478 76.3093 121.362 76.091C121.241 75.884 121.145 75.665 121.076 75.438Z" fill="black"/>
<path d="M125.703 75.6833C125.696 75.8315 125.688 75.9773 125.68 76.123C125.367 76.1207 125.051 76.1085 124.738 76.0769C124.37 76.0488 124.004 75.9911 123.646 75.9044C124.004 75.8177 124.37 75.76 124.738 75.7319C125.059 75.7004 125.383 75.6882 125.703 75.6833Z" fill="black"/>
<path d="M125.621 77.3184C125.61 77.4666 125.605 77.6123 125.597 77.7557C125.31 77.7508 125.025 77.7386 124.738 77.7095C124.37 77.6815 124.004 77.6237 123.646 77.537C124.004 77.4503 124.37 77.3926 124.738 77.3645C125.033 77.3354 125.326 77.3232 125.621 77.3184Z" fill="black"/>
<path d="M125.543 78.8926C125.538 79.0408 125.53 79.1865 125.525 79.3299C125.263 79.3226 125 79.3104 124.738 79.2837C124.37 79.2557 124.004 79.1979 123.646 79.1112C124.004 79.0245 124.37 78.9668 124.738 78.9387C125.007 78.912 125.276 78.8999 125.543 78.8926Z" fill="black"/>
<path d="M124.738 80.8191C124.981 80.7948 125.225 80.7827 125.465 80.7754C125.458 80.9236 125.452 81.0669 125.447 81.2054C125.212 81.2005 124.974 81.1884 124.738 81.1641C124.37 81.136 124.004 81.0783 123.646 80.9916C124.004 80.9049 124.37 80.8472 124.738 80.8191Z" fill="black"/>
<path d="M116.762 84.4352C116.762 84.4352 112.099 80.1091 110.359 82.9145C108.618 85.7199 109.815 87.7778 111.108 89.1664C112.683 90.8581 112.763 91.3647 113.23 91.8658C113.698 92.3669 118.975 98.4238 125.552 98.0835C129.389 97.885 129.324 95.9654 128.603 94.4002C128.079 93.2917 127.238 92.3416 126.172 91.656C124.071 90.2774 119.376 87.0847 116.762 84.4352Z" fill="black"/>
<path d="M115.171 83.1992C116.174 83.2436 117.174 83.3069 118.174 83.3682L121.172 83.5592C122.17 83.6336 123.17 83.6879 124.169 83.7377C124.668 83.7668 125.168 83.7838 125.668 83.7914C125.917 83.7911 126.169 83.808 126.417 83.791L126.791 83.7742L127.162 83.7195C126.175 83.9075 125.167 83.9764 124.162 83.9245C123.158 83.9132 122.156 83.8568 121.154 83.8013C120.154 83.7277 119.154 83.654 118.157 83.5536C117.159 83.4535 116.163 83.3433 115.171 83.1992Z" fill="black"/>
<path d="M125.149 91.0977C125.121 91.0976 125.093 91.0888 125.07 91.0727C125.048 91.0565 125.032 91.0338 125.024 91.0081C125.017 90.9824 125.018 90.9551 125.029 90.9304C125.04 90.9057 125.059 90.885 125.083 90.8713C125.285 90.7594 130.064 88.1253 131.852 88.673C131.884 88.6832 131.911 88.705 131.927 88.7337C131.942 88.7623 131.945 88.7956 131.934 88.8261C131.923 88.8566 131.9 88.8819 131.87 88.8965C131.839 88.911 131.804 88.9136 131.771 88.9038C130.095 88.3881 125.263 91.0536 125.215 91.0808C125.195 91.0918 125.172 91.0976 125.149 91.0977Z" fill="black"/>
<path d="M153.718 73.2369L153.721 73.2369L153.73 73.2385L165.002 77.1601L165.012 77.1641C166.132 77.6559 167.198 78.2504 168.194 78.9389C169.2 79.6284 170.087 80.46 170.822 81.4043C171.2 81.8804 171.497 82.4089 171.702 82.9707C171.9 83.5242 172.055 84.0904 172.166 84.665C172.417 85.8328 172.331 87.0426 171.915 88.1683C171.682 88.7285 171.339 89.2429 170.905 89.6849C170.467 90.1203 169.956 90.4849 169.392 90.764C168.831 91.0416 168.234 91.2476 167.616 91.3764C167.308 91.4373 166.997 91.4806 166.684 91.5062L165.769 91.5999C163.33 91.8448 160.892 92.0936 158.45 92.3167C153.568 92.7653 148.684 93.2048 143.79 93.5429C142.567 93.6285 141.342 93.7088 140.117 93.7745C138.889 93.8322 137.67 93.9127 136.421 93.8609C135.78 93.8115 135.171 93.5787 134.675 93.194C134.188 92.825 133.76 92.3926 133.404 91.9097C132.7 90.9532 132.133 89.9138 131.718 88.8184C131.712 88.8039 131.711 88.7884 131.713 88.7731C131.716 88.7579 131.722 88.7435 131.732 88.7313C131.742 88.719 131.755 88.7093 131.77 88.7031C131.785 88.6968 131.801 88.6942 131.818 88.6955L131.821 88.6958C132.345 88.7591 132.876 88.7576 133.399 88.6912C133.646 88.6468 133.906 88.5541 133.978 88.358C134.022 88.1309 133.974 87.8965 133.844 87.7007C133.586 87.2645 133.285 86.8524 132.945 86.4699C132.611 86.0764 132.266 85.6902 131.924 85.3011C131.582 84.9121 131.242 84.5205 130.912 84.1204C130.6 83.7184 130.223 83.3647 129.794 83.0721C129.593 82.9219 129.358 82.8183 129.106 82.77C128.854 82.7217 128.594 82.7299 128.346 82.794C127.865 82.9764 127.472 83.3192 127.243 83.7568L127.24 83.7615C127.232 83.776 127.219 83.7879 127.204 83.7957C127.188 83.8034 127.17 83.8067 127.153 83.8051C127.135 83.8035 127.119 83.7971 127.105 83.7867C127.091 83.7762 127.081 83.7622 127.076 83.7465C126.907 83.2572 126.818 82.7465 126.814 82.2321C126.812 81.9698 126.857 81.7091 126.945 81.4601C127.036 81.2014 127.209 80.9749 127.44 80.8109L127.427 80.8216C127.639 80.6473 127.883 80.5098 128.146 80.4157C128.397 80.3176 128.652 80.2319 128.912 80.1588C129.429 80.0104 129.952 79.8901 130.477 79.7809C131.527 79.5645 132.584 79.3916 133.644 79.2338C135.764 78.9215 137.892 78.6745 140.022 78.4499C144.284 78.0015 148.553 77.6449 152.831 77.3494L152.645 77.5154C152.914 75.9161 153.264 74.3726 153.594 72.8058L154.622 68.1264L156.688 58.7696L156.783 59.0143C156.552 58.8938 156.302 58.8091 156.042 58.7634C155.759 58.7027 155.469 58.6526 155.176 58.6124C154.59 58.529 153.994 58.4721 153.399 58.4222C152.206 58.3238 151.007 58.2657 149.807 58.2147C147.407 58.1147 145.002 58.0683 142.597 58.0417C137.786 57.9893 132.972 58.0289 128.162 58.0915L128.336 58.0198C128.175 58.2085 128.051 58.4221 127.969 58.651C127.871 58.8943 127.788 59.1487 127.714 59.4062C127.566 59.9221 127.45 60.4512 127.346 60.9822C127.14 62.0457 126.983 63.1212 126.845 64.1988C126.571 66.3548 126.373 68.5217 126.201 70.6901C126.032 72.8594 125.89 75.0306 125.775 77.2037C125.647 79.3737 125.562 81.5502 125.475 83.7226L125.475 83.7248C125.474 83.7527 125.461 83.7791 125.44 83.7982C125.418 83.8173 125.389 83.8276 125.36 83.8268L115.497 83.5863C115.49 83.5861 115.483 83.5834 115.479 83.5788C115.474 83.5742 115.471 83.568 115.471 83.5616C115.471 83.5552 115.474 83.5491 115.479 83.5446C115.484 83.5402 115.491 83.5377 115.497 83.5377L125.363 83.613L125.248 83.7172C125.307 81.5395 125.373 79.3657 125.478 77.1887C125.571 75.0157 125.692 72.8416 125.838 70.6666C125.988 68.4933 126.165 66.3209 126.418 64.1526C126.546 63.0685 126.692 61.9855 126.89 60.9059C126.99 60.3662 127.102 59.8273 127.25 59.2909C127.324 59.0227 127.408 58.7552 127.513 58.4888C127.614 58.2001 127.771 57.9317 127.977 57.6973C127.998 57.6755 128.023 57.658 128.051 57.6457C128.079 57.6334 128.109 57.6266 128.14 57.6258L128.151 57.6255C130.56 57.5671 132.968 57.5464 135.376 57.5297C137.785 57.5153 140.194 57.5178 142.603 57.5372C145.012 57.5602 147.421 57.603 149.831 57.6997C151.036 57.7504 152.241 57.8173 153.447 57.9204C154.05 57.9733 154.652 58.0331 155.256 58.1213C155.558 58.164 155.86 58.217 156.164 58.2835C156.496 58.3429 156.814 58.4593 157.102 58.6268C157.141 58.6514 157.171 58.6863 157.189 58.7271C157.207 58.7679 157.211 58.8128 157.201 58.8559L157.198 58.8716L155.091 68.2177L154.032 72.8898C153.688 74.4436 153.319 76.0146 153.042 77.5585L153.041 77.5686C153.033 77.6102 153.011 77.6483 152.978 77.6766C152.944 77.7049 152.902 77.7218 152.857 77.7246C148.584 77.9829 144.312 78.3026 140.053 78.7141C137.924 78.9255 135.797 79.1594 133.681 79.4582C132.623 79.6091 131.568 79.7751 130.524 79.9837C130.002 80.089 129.483 80.2053 128.974 80.3481C128.72 80.4177 128.471 80.4996 128.226 80.5936C127.987 80.677 127.766 80.7985 127.571 80.9527L127.567 80.9559L127.558 80.9635C127.357 81.1043 127.208 81.2991 127.129 81.5219C127.046 81.7516 127.004 81.9923 127.005 82.2346C127.006 82.7292 127.088 83.2207 127.247 83.6922L127.08 83.6819C127.333 83.2056 127.765 82.8348 128.293 82.6419C128.565 82.5717 128.851 82.5628 129.128 82.616C129.405 82.6692 129.664 82.7829 129.885 82.9479C130.324 83.2529 130.712 83.6171 131.038 84.0288C131.368 84.4253 131.709 84.814 132.053 85.201C132.396 85.5882 132.744 85.9731 133.081 86.3676C133.432 86.7578 133.742 87.1787 134.007 87.6245C134.163 87.8611 134.216 88.1454 134.153 88.4175C134.095 88.5564 133.985 88.6703 133.844 88.7372C133.715 88.7986 133.578 88.8421 133.437 88.8664C132.895 88.9389 132.345 88.9438 131.802 88.8808L131.905 88.7583C132.316 89.8344 132.883 90.8523 133.589 91.7834C133.938 92.2444 134.355 92.6564 134.828 93.0067C135.288 93.3572 135.851 93.566 136.442 93.6048C137.645 93.6411 138.878 93.5483 140.097 93.4765C141.319 93.3975 142.54 93.3039 143.761 93.205C148.644 92.7985 153.526 92.3592 158.404 91.887L165.723 91.1899C166.328 91.1207 166.956 91.0941 167.524 90.9813C168.105 90.8628 168.667 90.6719 169.194 90.4138C170.258 89.9131 171.091 89.0656 171.537 88.03C171.932 86.969 172.017 85.8281 171.783 84.7259C171.68 84.1666 171.534 83.6148 171.349 83.0745C171.161 82.544 170.887 82.044 170.535 81.5925C169.831 80.6671 168.979 79.8496 168.008 79.1692C167.036 78.4815 165.994 77.8855 164.897 77.39L164.907 77.3939L153.712 73.2839L153.721 73.2855L153.718 73.2855C153.711 73.2855 153.705 73.2829 153.7 73.2784C153.695 73.2738 153.692 73.2677 153.692 73.2612C153.692 73.2548 153.695 73.2486 153.7 73.244C153.705 73.2395 153.711 73.2369 153.718 73.2369L153.718 73.2369Z" fill="black"/>
<path d="M128.157 57.8586C126.262 59.8702 125.362 83.72 125.362 83.72H127.163C127.163 83.72 126.41 81.6259 127.499 80.8873C129.479 78.9729 152.844 77.5371 152.844 77.5371C152.896 77.1168 153.245 75.4454 153.721 73.2613C154.927 67.7003 156.943 58.8208 156.943 58.8208C154.893 57.3339 128.157 57.8586 128.157 57.8586ZM141.385 68.7911C139.121 68.7911 137.286 68.281 137.286 67.6542C137.286 67.0273 139.121 66.5172 141.385 66.5172C143.65 66.5172 145.484 67.0274 145.484 67.6542C145.484 68.281 143.65 68.7911 141.385 68.7911Z" fill="#F98E00"/>
<path d="M102.048 83.9211C101.748 85.5962 101.591 87.291 101.578 88.9896C101.55 90.6827 101.722 92.3736 102.092 94.0309C102.488 95.666 103.175 97.2815 104.382 98.5062C104.998 99.1065 105.713 99.6102 106.498 99.9982L107.085 100.305C107.282 100.405 107.489 100.49 107.69 100.584C108.094 100.769 108.499 100.951 108.917 101.112C110.57 101.784 112.27 102.365 113.985 102.9C115.699 103.438 117.43 103.933 119.166 104.41C122.636 105.376 126.14 106.217 129.654 107.059C130.554 107.284 131.396 107.675 132.132 108.21C132.869 108.745 133.483 109.413 133.94 110.175C134.166 110.554 134.353 110.952 134.498 111.364C134.632 111.777 134.732 112.199 134.799 112.626L135.244 115.143C135.858 118.495 136.451 121.85 137.089 125.199L140.918 145.288L140.738 145.143C143.411 145.179 146.091 145.146 148.759 145.012C150.093 144.945 151.425 144.851 152.743 144.688C153.399 144.609 154.05 144.498 154.694 144.356C155.009 144.287 155.319 144.198 155.623 144.091C155.903 144 156.161 143.857 156.381 143.671L156.316 143.84C156.125 139.538 155.897 135.235 155.66 130.935C155.419 126.633 155.122 122.336 154.822 118.038C154.508 113.742 154.148 109.448 153.653 105.168C153.405 103.028 153.114 100.893 152.749 98.7689C152.563 97.7079 152.357 96.6489 152.081 95.6064C151.947 95.0846 151.78 94.5709 151.581 94.068C151.481 93.8176 151.359 93.5758 151.215 93.3451C151.155 93.2271 151.07 93.1215 150.966 93.0342C150.863 92.9469 150.741 92.8797 150.61 92.8365L150.608 92.8361C150.601 92.8348 150.595 92.8311 150.591 92.8258C150.588 92.8205 150.586 92.8139 150.587 92.8076C150.589 92.8014 150.593 92.7958 150.598 92.7922C150.604 92.7886 150.611 92.7873 150.618 92.7885C150.759 92.8299 150.889 92.8974 151.002 92.9869C151.115 93.0764 151.208 93.1861 151.275 93.3096C151.427 93.5409 151.557 93.7841 151.665 94.0364C151.878 94.5388 152.058 95.0528 152.206 95.5756C152.509 96.6177 152.741 97.6755 152.953 98.7355C153.371 100.857 153.672 102.996 153.954 105.135C154.504 109.416 154.92 113.71 155.289 118.006C155.666 122.302 155.937 126.604 156.197 130.907C156.456 135.21 156.665 139.515 156.825 143.823L156.825 143.831C156.826 143.86 156.821 143.89 156.809 143.918C156.798 143.945 156.781 143.971 156.759 143.992C156.485 144.233 156.16 144.417 155.805 144.532C155.481 144.645 155.149 144.738 154.812 144.811C154.15 144.954 153.481 145.064 152.807 145.142C151.467 145.301 150.124 145.389 148.782 145.449C146.096 145.556 143.413 145.559 140.728 145.494C140.685 145.493 140.643 145.478 140.611 145.451C140.578 145.425 140.556 145.389 140.549 145.349L136.92 125.226C136.314 121.873 135.665 118.526 135.035 115.177L134.548 112.667C134.477 112.253 134.373 111.845 134.237 111.446C134.091 111.052 133.906 110.673 133.684 110.312C133.238 109.594 132.643 108.966 131.935 108.466C131.227 107.966 130.419 107.604 129.56 107.401C126.036 106.625 122.52 105.772 119.037 104.825C117.293 104.356 115.564 103.837 113.844 103.291C112.125 102.745 110.42 102.152 108.753 101.463C108.333 101.299 107.922 101.111 107.513 100.921C107.309 100.825 107.101 100.738 106.901 100.635L106.302 100.318C105.485 99.9075 104.745 99.3728 104.114 98.7355C102.865 97.4288 102.192 95.7561 101.814 94.0885C101.458 92.4095 101.318 90.6967 101.396 88.9864C101.452 87.2824 101.653 85.5854 101.997 83.9115C101.998 83.9052 102.002 83.8996 102.008 83.896C102.014 83.8924 102.021 83.8911 102.027 83.8923C102.034 83.8937 102.04 83.8975 102.044 83.9029C102.047 83.9083 102.049 83.9148 102.048 83.9211Z" fill="black"/>
<path d="M144.925 148.423C144.925 148.423 142.689 148.205 142.689 149.21C142.689 150.216 142.876 157.563 143.807 157.781C144.739 158 172.035 166.834 179.301 159.662C179.301 159.662 184.332 157.038 174.829 153.977C165.327 150.916 159.365 147.855 159.365 147.855C159.365 147.855 150.328 148.117 150.142 148.992C149.956 149.866 151.353 153.015 151.353 153.015C151.353 153.015 145.391 154.327 144.925 148.423Z" fill="black"/>
<path d="M144.925 148.545C144.915 148.545 144.904 148.544 144.893 148.541C144.86 148.533 144.832 148.513 144.814 148.485C144.797 148.457 144.792 148.424 144.8 148.393C144.923 147.888 144.939 147.364 144.846 146.853C144.753 146.342 144.554 145.853 144.26 145.414C144.251 145.401 144.244 145.387 144.24 145.371C144.236 145.355 144.236 145.339 144.239 145.324C144.242 145.308 144.248 145.293 144.257 145.28C144.266 145.266 144.278 145.254 144.292 145.245C144.306 145.236 144.322 145.23 144.338 145.226C144.355 145.223 144.372 145.222 144.389 145.225C144.406 145.228 144.422 145.234 144.436 145.242C144.45 145.251 144.463 145.262 144.472 145.275C144.792 145.741 145.007 146.263 145.107 146.809C145.206 147.355 145.187 147.915 145.051 148.454C145.044 148.48 145.027 148.503 145.005 148.519C144.982 148.536 144.954 148.545 144.925 148.545Z" fill="black"/>
<path d="M158.247 147.976L158.243 147.976C155.426 147.888 152.673 145.13 152.557 145.013C152.546 145.001 152.537 144.987 152.531 144.972C152.525 144.957 152.522 144.941 152.523 144.925C152.523 144.909 152.527 144.894 152.534 144.879C152.542 144.865 152.552 144.852 152.564 144.841C152.577 144.83 152.591 144.822 152.607 144.816C152.623 144.81 152.64 144.808 152.657 144.808C152.674 144.809 152.691 144.813 152.706 144.819C152.722 144.826 152.735 144.835 152.747 144.847C152.775 144.875 155.544 147.648 158.251 147.733C158.285 147.735 158.317 147.748 158.341 147.771C158.364 147.794 158.377 147.825 158.376 147.857C158.376 147.889 158.362 147.919 158.338 147.941C158.313 147.964 158.281 147.976 158.247 147.976V147.976Z" fill="black"/>
<path d="M93.2944 82.6303C93.2756 82.6267 93.2568 82.6267 93.2381 82.6232L93.2156 82.6021C93.2425 82.6099 93.2688 82.6193 93.2944 82.6303Z" fill="white"/>
<path d="M101.477 90.9583V90.9794C101.489 90.9159 101.5 90.856 101.511 90.7925C101.5 90.8489 101.489 90.9018 101.477 90.9583Z" fill="white"/>
<path d="M153.15 100.214V100.221C153.135 100.224 153.123 100.228 153.108 100.231C153.123 100.224 153.135 100.221 153.15 100.214Z" fill="white"/>
<path d="M89.5341 102.812L89.9766 110.116L90.3802 117.423C90.5178 119.858 90.7001 122.292 90.745 124.73C90.765 125.949 90.7848 127.169 90.7711 128.389L90.7495 130.22C90.7269 130.831 90.7187 131.441 90.6831 132.052C90.6826 132.062 90.6784 132.07 90.6715 132.077C90.6646 132.083 90.6553 132.087 90.6456 132.087C90.6359 132.087 90.6264 132.084 90.619 132.078C90.6116 132.072 90.6068 132.064 90.6055 132.055C90.5221 131.448 90.4661 130.84 90.3956 130.232L90.2304 128.408C90.1209 127.192 90.0451 125.974 89.9692 124.757C89.8226 122.322 89.8134 119.882 89.7595 117.444L89.5886 110.13L89.4565 102.814C89.4564 102.805 89.4602 102.796 89.4672 102.789C89.4742 102.782 89.4838 102.778 89.4939 102.777C89.5041 102.777 89.514 102.78 89.5215 102.787C89.529 102.793 89.5336 102.802 89.5341 102.812V102.812Z" fill="black"/>
<path d="M110.681 116.631L110.899 124.07L111.077 131.51C111.14 133.989 111.247 136.469 111.217 138.949C111.199 140.19 111.182 141.43 111.131 142.67L111.053 144.531C111.011 145.151 110.984 145.772 110.93 146.392C110.929 146.401 110.925 146.41 110.917 146.416C110.91 146.422 110.901 146.426 110.891 146.426C110.882 146.426 110.872 146.422 110.865 146.416C110.858 146.41 110.853 146.402 110.852 146.393C110.787 145.773 110.75 145.153 110.698 144.534L110.589 142.674C110.517 141.435 110.479 140.195 110.441 138.955C110.369 136.475 110.435 133.995 110.456 131.514L110.511 124.073L110.604 116.632C110.604 116.622 110.608 116.613 110.615 116.607C110.622 116.6 110.632 116.596 110.642 116.596C110.652 116.596 110.662 116.6 110.669 116.606C110.677 116.613 110.681 116.622 110.681 116.631L110.681 116.631Z" fill="black"/>
<path d="M90.6444 132.095C92.4623 132.095 93.936 131.834 93.936 131.512C93.936 131.19 92.4623 130.929 90.6444 130.929C88.8264 130.929 87.3527 131.19 87.3527 131.512C87.3527 131.834 88.8264 132.095 90.6444 132.095Z" fill="black"/>
<path d="M110.767 146.511C112.585 146.511 114.058 146.25 114.058 145.928C114.058 145.606 112.585 145.345 110.767 145.345C108.949 145.345 107.475 145.606 107.475 145.928C107.475 146.25 108.949 146.511 110.767 146.511Z" fill="black"/>
<path d="M132.658 111.82L132.947 115.233L133.198 118.647C133.276 119.785 133.422 120.921 133.41 122.063C133.419 123.209 133.347 124.355 133.195 125.493C133.194 125.501 133.189 125.509 133.182 125.515C133.175 125.521 133.167 125.524 133.157 125.525C133.148 125.525 133.139 125.522 133.132 125.517C133.124 125.512 133.119 125.504 133.117 125.496C132.877 124.371 132.715 123.234 132.634 122.089C132.532 120.952 132.588 119.809 132.577 118.669L132.559 115.246L132.58 111.823C132.58 111.813 132.584 111.804 132.591 111.797C132.598 111.791 132.607 111.787 132.617 111.786C132.627 111.786 132.637 111.789 132.645 111.796C132.652 111.802 132.657 111.811 132.658 111.82Z" fill="black"/>
<path d="M161.578 104.004L161.795 111.356L161.973 118.709C162.035 121.16 162.142 123.61 162.111 126.062C162.094 127.288 162.076 128.513 162.025 129.739L161.947 131.578C161.905 132.191 161.878 132.804 161.824 133.418C161.823 133.427 161.818 133.435 161.811 133.441C161.804 133.448 161.795 133.451 161.785 133.451C161.775 133.451 161.766 133.448 161.759 133.442C161.751 133.436 161.747 133.427 161.746 133.418C161.681 132.806 161.644 132.193 161.592 131.581L161.483 129.743C161.412 128.518 161.373 127.293 161.335 126.067C161.264 123.617 161.33 121.165 161.351 118.714L161.407 111.359L161.5 104.005C161.501 103.995 161.505 103.986 161.512 103.979C161.519 103.973 161.529 103.969 161.539 103.969C161.549 103.969 161.559 103.972 161.566 103.979C161.574 103.986 161.578 103.995 161.578 104.004V104.004Z" fill="black"/>
<path d="M133.156 125.535C134.974 125.535 136.448 125.274 136.448 124.952C136.448 124.63 134.974 124.369 133.156 124.369C131.338 124.369 129.864 124.63 129.864 124.952C129.864 125.274 131.338 125.535 133.156 125.535Z" fill="black"/>
<path d="M161.66 133.537C163.478 133.537 164.952 133.276 164.952 132.954C164.952 132.632 163.478 132.371 161.66 132.371C159.842 132.371 158.369 132.632 158.369 132.954C158.369 133.276 159.842 133.537 161.66 133.537Z" fill="black"/>
<path d="M127.162 83.8408H125.362C125.328 83.8407 125.295 83.8278 125.271 83.805C125.247 83.7822 125.233 83.7514 125.233 83.7192C125.233 83.6871 125.247 83.6563 125.271 83.6335C125.295 83.6107 125.328 83.5978 125.362 83.5977H127.162C127.196 83.5978 127.229 83.6107 127.253 83.6335C127.277 83.6563 127.291 83.6871 127.291 83.7192C127.291 83.7514 127.277 83.7822 127.253 83.805C127.229 83.8278 127.196 83.8407 127.162 83.8408Z" fill="black"/>
</svg>
