<svg width="245" height="193" viewBox="0 0 245 193" fill="none" xmlns="http://www.w3.org/2000/svg">
<path d="M120.5 40L119 41.5L115.5 44.5L113 47.5L112 54.5L109.5 71L108 88.5L107.5 97L111 99L110 100H109L108.5 100.5V101L109.5 102L110 103H113.5L111 114L107.5 120L102.5 135L99 143.5L98.5 144L97.5 149L95.5 149.5L94 153.5L93.5 156.5L96.5 157.5L98 157L98.5 158L105.5 161L113.5 162.5L115.5 161.5L109.5 157.5L102.5 150L103 147.5L107.5 148L122 115.5L124 126.5L125 132L127 142.5L128 146L128.5 149.5H130L130.5 152.5V154L129.5 155.5V157.5L130 158.5L129.5 159.5V161H131.5H132L133 159.5L135 159L137.5 161H140.5H149L151 160.5L151.5 159.5L145 157.5L138 155L135.5 153.5L135 152V151V149.5L138 148L130.5 100L131.5 98.5L132 93L130.5 85.5L130 79L130.5 78L132 76.5L134 75L138 73L139.5 71V67.5L142.5 66L145.5 64L146.5 63V61V59.5L148.5 58L146 56L143.5 57.5L141 59L140.5 58.5L140 58L139.5 58.5L138.5 60.5L137.5 61L136 62L137.5 64L134 64.5H131.5L129.5 62.5L129 60L128 54.5V51V48L128.5 46V44H129.5L130.5 43.5L131.5 42.5L132.5 40.5L133 39.5L132.5 38.5V36V35H132H130H128L127 34H125.5L124.5 35L123.5 37L121.5 37.5L120.5 40Z" fill="white" stroke="white"/>
<path d="M101.54 145.033C101.344 145.545 101.148 146.054 100.952 146.566C99.815 145.799 98.829 144.828 98.0432 143.703C98.3232 142.674 98.5962 141.695 98.8657 140.759C98.8945 141.32 99.0176 141.873 99.2297 142.394C99.3369 142.656 99.4657 142.908 99.6147 143.148C99.7596 143.394 99.9259 143.627 100.112 143.843C100.514 144.321 100.997 144.724 101.54 145.033Z" fill="black"/>
<path d="M107.98 145.885C108.529 145.776 109.079 145.675 109.621 145.552L108.088 148.58C105.552 148.721 103.042 148.012 100.952 146.566L101.592 145.061C102.025 145.308 102.484 145.506 102.961 145.65C103.503 145.817 104.06 145.935 104.623 146.001C104.903 146.04 105.183 146.026 105.467 146.043C105.747 146.047 106.03 146.075 106.31 146.05C106.867 145.994 107.427 145.969 107.98 145.885Z" fill="black"/>
<path d="M132.312 147.433C132.385 148.303 132.452 149.177 132.522 150.047C130.086 150.156 127.961 150.061 127.961 150.061C127.961 149.84 127.776 148.85 127.468 147.363C128.486 147.499 129.513 147.556 130.541 147.531C131.132 147.524 131.724 147.489 132.312 147.433Z" fill="black"/>
<path d="M132 143.899C132.102 144.966 132.197 146.033 132.287 147.099C131.703 147.166 131.118 147.219 130.53 147.264C130.023 147.306 129.512 147.327 129.004 147.338C128.493 147.363 127.982 147.363 127.468 147.363C125.994 140.229 121.724 121.659 121.724 121.659L109.621 145.552C109.065 145.598 108.512 145.661 107.962 145.717C107.409 145.766 106.856 145.755 106.303 145.78C106.03 145.787 105.754 145.745 105.481 145.734C105.208 145.713 104.931 145.717 104.662 145.671C104.121 145.599 103.587 145.481 103.066 145.317C102.599 145.176 102.149 144.987 101.722 144.752L105.026 136.969C106.384 133.768 107.728 130.565 109.114 127.378C110.472 124.182 111.862 120.999 113.286 117.83C113.996 116.244 114.721 114.665 115.477 113.103C115.858 112.324 116.24 111.542 116.649 110.78C116.856 110.394 117.066 110.019 117.293 109.647C117.509 109.271 117.761 108.917 118.046 108.591C117.747 108.906 117.48 109.251 117.248 109.619C117.01 109.984 116.786 110.356 116.569 110.735C116.135 111.486 115.729 112.258 115.323 113.026C114.532 114.574 113.783 116.142 113.041 117.714C111.567 120.865 110.178 124.052 108.792 127.238C107.434 130.438 106.086 133.642 104.777 136.863C103.72 139.474 102.682 142.093 101.662 144.72C101.16 144.44 100.704 144.084 100.311 143.664C99.5614 142.855 99.0597 141.846 98.8658 140.758V140.751C104.252 121.88 107.094 120.813 108.358 114.451C109.122 110.693 109.684 106.896 110.041 103.078C110.429 103.389 110.923 103.534 111.417 103.481C111.417 103.481 111.154 104.91 112.526 104.91H114.535C114.535 104.91 114.273 106.022 115.645 105.969C116.502 105.938 117.111 105.534 117.818 105.222C118.432 104.951 118.954 104.506 119.319 103.942C119.684 103.378 119.877 102.719 119.873 102.046C119.869 101.755 119.85 101.465 119.817 101.176L120.776 100.99C121.997 101.099 123.243 101.158 124.489 101.144C124.877 105.263 125.474 109.358 126.278 113.416C126.677 115.451 127.163 117.476 127.741 119.472C128.01 120.472 128.385 121.458 128.665 122.445C128.987 123.424 129.204 124.438 129.449 125.441C130.291 129.497 130.929 133.593 131.36 137.713C131.605 139.772 131.808 141.836 132 143.899Z" fill="black"/>
<path d="M139.193 144.773C138.979 144.917 138.769 145.061 138.559 145.208C138.346 145.345 138.124 145.468 137.894 145.576C137.782 145.636 137.674 145.703 137.562 145.759L137.208 145.903C136.98 146.009 136.745 146.102 136.505 146.18C136.263 146.257 136.022 146.334 135.784 146.415L135.049 146.608C134.804 146.678 134.555 146.72 134.307 146.773C134.058 146.826 133.81 146.882 133.558 146.913C133.166 146.984 132.77 147.04 132.375 147.089C132.2 143.948 131.944 140.815 131.629 137.684C131.236 133.548 130.622 129.435 129.788 125.364C129.54 124.353 129.316 123.336 128.983 122.346C128.689 121.339 128.322 120.385 128.045 119.381C127.457 117.398 126.978 115.384 126.54 113.359C126.106 111.335 125.728 109.296 125.392 107.25C125.049 105.222 124.75 103.187 124.493 101.144C125.939 101.135 127.382 101.012 128.808 100.776C129.422 100.741 130.017 100.545 130.532 100.208C131.047 99.8717 131.465 99.4056 131.745 98.8564C133.211 113.76 137.065 130.193 139.193 144.773Z" fill="black"/>
<path d="M132.522 150.047C132.483 149.173 132.44 148.298 132.392 147.422C132.802 147.38 133.211 147.331 133.617 147.261C134.639 147.098 135.639 146.82 136.599 146.433C137.562 146.051 138.443 145.488 139.193 144.773C139.336 145.731 139.469 146.682 139.592 147.626C139.819 149.349 135.878 149.893 132.522 150.047Z" fill="black"/>
<path d="M120.033 39.833C120.033 39.833 125.319 45.4505 126.165 45.4505C126.165 45.4505 124.791 47.0403 124.791 47.8882C124.791 47.8882 119.399 43.0127 118.448 41.1049L120.033 39.833Z" fill="black"/>
<path d="M119.782 100.855C120.537 100.896 121.288 100.948 122.042 100.962C122.795 100.977 123.547 100.979 124.298 100.961C125.049 100.941 125.797 100.895 126.542 100.818C127.287 100.737 128.03 100.651 128.765 100.516L128.775 100.515L128.813 100.513C129.341 100.478 129.85 100.308 130.294 100.019C130.744 99.7272 131.12 99.3335 131.391 98.8694C131.929 97.8956 132.219 96.8042 132.237 95.6913C132.288 94.5505 132.223 93.4074 132.043 92.2798C131.958 91.7136 131.849 91.1451 131.751 90.5712L131.476 88.8515C131.112 86.5567 130.932 84.2418 130.666 81.9431C130.4 79.6422 130.087 77.3468 129.801 75.0493C129.228 70.4542 128.606 65.8682 127.936 61.291C127.6 59.0033 127.248 56.7176 126.807 54.4507C126.595 53.3156 126.353 52.1864 126.057 51.0729C125.986 50.7933 125.91 50.5161 125.825 50.2412C125.749 49.963 125.652 49.693 125.557 49.4219C125.385 48.8754 125.117 48.3639 124.768 47.9108L124.813 47.863C125.213 48.2949 125.526 48.7991 125.737 49.3486C125.852 49.6167 125.968 49.8853 126.064 50.1603C126.167 50.4332 126.267 50.7073 126.351 50.9856C126.705 52.0953 127.003 53.2204 127.272 54.3507C127.792 56.6156 128.224 58.8977 128.602 61.1868C129.354 65.7667 129.873 70.3769 130.337 74.9889C130.569 77.2951 130.74 79.6073 130.934 81.9163L131.238 85.3778C131.347 86.5284 131.511 87.6739 131.719 88.8108C131.917 89.954 132.202 91.0624 132.438 92.2109C132.68 93.3625 132.799 94.5369 132.79 95.7139C132.803 96.9291 132.493 98.1257 131.89 99.1804C131.568 99.7209 131.118 100.173 130.58 100.498C130.041 100.822 129.431 101.008 128.804 101.039L128.852 101.035C128.099 101.158 127.341 101.242 126.58 101.287C125.82 101.331 125.058 101.344 124.299 101.331C123.54 101.32 122.783 101.278 122.028 101.204C121.273 101.138 120.522 101.038 119.775 100.921L119.782 100.855Z" fill="black"/>
<path d="M110.9 99.1163C110.236 98.9614 109.578 98.7839 108.922 98.5956C108.266 98.4063 107.614 98.2101 106.967 97.9748L106.824 97.9227L106.866 97.7505C106.988 97.1568 107.072 96.5557 107.117 95.9512L107.284 94.1036L107.589 90.4002C107.77 87.9286 108.014 85.4611 108.271 82.9943C108.823 78.0633 109.133 73.1132 109.402 68.1591C109.548 65.6827 109.721 63.2082 109.923 60.7354C110.12 58.2618 110.326 55.7888 110.64 53.3204C110.717 52.7033 110.804 52.0858 110.899 51.468C110.989 50.8382 111.134 50.2177 111.334 49.614C111.744 48.4129 112.328 47.279 113.069 46.249C114.547 44.2296 116.36 42.48 118.429 41.0767L118.467 41.1308C117.508 41.9068 116.605 42.7496 115.764 43.6529C114.918 44.5419 114.155 45.5055 113.483 46.532C112.805 47.5373 112.278 48.6372 111.92 49.7964C111.749 50.3761 111.628 50.9692 111.557 51.5693C111.471 52.1778 111.394 52.7892 111.325 53.4035C111.055 55.8599 110.811 58.3266 110.568 60.7925L109.854 68.1953C109.336 73.1285 108.902 78.0691 108.682 83.0265C108.552 85.5038 108.405 87.9803 108.16 90.4497L107.786 94.154C107.72 94.7717 107.637 95.3874 107.55 96.0039C107.475 96.6335 107.357 97.2573 107.197 97.8707L107.095 97.6465C107.719 97.8985 108.356 98.1425 108.993 98.3775C109.631 98.6097 110.274 98.831 110.918 99.0526L110.9 99.1163Z" fill="black"/>
<path d="M117.602 43.8608L119.823 46.3712C120.561 47.2067 121.297 48.0425 122.052 48.8601C122.799 49.685 123.563 50.4936 124.351 51.2758C125.131 52.071 125.963 52.8128 126.841 53.4962C125.859 52.9497 124.945 52.2889 124.117 51.5277C123.688 51.1631 123.294 50.7636 122.888 50.3763C122.497 49.974 122.105 49.5729 121.728 49.1583C120.974 48.3286 120.247 47.4752 119.559 46.591C118.867 45.7108 118.21 44.8025 117.602 43.8608Z" fill="black"/>
<path d="M114.536 50.0083C115.112 49.7451 115.717 49.5545 116.339 49.4409C116.964 49.3151 117.602 49.2647 118.239 49.2909C118.884 49.3127 119.521 49.4464 120.121 49.6859C120.717 49.9317 121.236 50.3364 121.619 50.8562C121.135 50.4798 120.588 50.1932 120.004 50.0099C119.857 49.9738 119.711 49.9364 119.567 49.895C119.42 49.8623 119.27 49.8443 119.122 49.818C118.973 49.7911 118.823 49.7724 118.672 49.7622C118.522 49.7441 118.371 49.734 118.219 49.7319C117.608 49.705 116.996 49.7214 116.387 49.7809C115.774 49.8366 115.158 49.9129 114.536 50.0083Z" fill="black"/>
<path d="M112.951 91.3442C113.631 91.6052 114.31 91.8485 114.991 92.0751C115.675 92.2949 116.359 92.5053 117.054 92.6627C117.747 92.8251 118.45 92.9398 119.158 93.0057C119.873 93.0561 120.592 93.0321 121.302 92.9341C120.615 93.205 119.885 93.3461 119.147 93.3501C118.409 93.3466 117.673 93.2602 116.954 93.0925C116.241 92.9213 115.543 92.6882 114.87 92.3961C114.196 92.1126 113.553 91.7601 112.951 91.3442Z" fill="black"/>
<path d="M127.011 66.3438C127.096 66.3409 127.177 66.3047 127.237 66.2429C127.296 66.1811 127.33 66.0985 127.33 66.0126C127.33 65.9267 127.296 65.8441 127.237 65.7824C127.177 65.7206 127.096 65.6844 127.011 65.6814C126.925 65.6844 126.844 65.7206 126.784 65.7824C126.725 65.8441 126.691 65.9267 126.691 66.0126C126.691 66.0985 126.725 66.1811 126.784 66.2429C126.844 66.3047 126.925 66.3409 127.011 66.3438Z" fill="black"/>
<path d="M128.279 75.9888C128.365 75.9859 128.446 75.9497 128.505 75.8879C128.565 75.8261 128.598 75.7435 128.598 75.6576C128.598 75.5717 128.565 75.4892 128.505 75.4274C128.446 75.3656 128.365 75.3294 128.279 75.3264C128.193 75.3294 128.112 75.3656 128.053 75.4274C127.993 75.4892 127.96 75.5717 127.96 75.6576C127.96 75.7435 127.993 75.8261 128.053 75.8879C128.112 75.9497 128.193 75.9859 128.279 75.9888Z" fill="black"/>
<path d="M129.442 83.4081C129.528 83.4051 129.609 83.3689 129.668 83.3071C129.728 83.2453 129.761 83.1627 129.761 83.0768C129.761 82.9909 129.728 82.9084 129.668 82.8466C129.609 82.7848 129.528 82.7486 129.442 82.7456C129.357 82.7486 129.275 82.7848 129.216 82.8466C129.156 82.9084 129.123 82.9909 129.123 83.0768C129.123 83.1627 129.156 83.2453 129.216 83.3071C129.275 83.3689 129.357 83.4051 129.442 83.4081Z" fill="black"/>
<path d="M130.816 92.4173C130.902 92.4143 130.983 92.3782 131.043 92.3164C131.102 92.2546 131.135 92.172 131.135 92.0861C131.135 92.0002 131.102 91.9176 131.043 91.8558C130.983 91.7941 130.902 91.7579 130.816 91.7549C130.731 91.7579 130.65 91.7941 130.59 91.8558C130.53 91.9176 130.497 92.0002 130.497 92.0861C130.497 92.172 130.53 92.2546 130.59 92.3164C130.65 92.3782 130.731 92.4143 130.816 92.4173Z" fill="black"/>
<path d="M120.318 96.0591C120.414 96.4627 120.487 96.8712 120.537 97.2829C120.594 97.6984 120.612 98.1185 120.589 98.5373C120.579 98.7556 120.541 98.9716 120.475 99.1798C120.399 99.3992 120.32 99.5601 120.256 99.7588C120.118 100.133 120.017 100.521 119.956 100.915L119.956 100.866C120.026 101.255 120.028 101.655 120.066 102.05C120.072 102.462 120.005 102.872 119.867 103.259C119.589 104.035 119.048 104.687 118.339 105.104C118.166 105.203 117.985 105.29 117.8 105.365L117.27 105.597C116.914 105.767 116.539 105.896 116.154 105.982C115.762 106.074 115.352 106.058 114.968 105.935C114.769 105.858 114.607 105.705 114.52 105.51C114.439 105.314 114.419 105.099 114.46 104.892L114.535 104.987C113.847 104.987 113.166 105.02 112.472 105.028C112.278 105.039 112.084 105.003 111.908 104.922C111.731 104.84 111.578 104.716 111.46 104.561C111.257 104.229 111.18 103.834 111.244 103.45L111.421 103.657C111.16 103.672 110.898 103.651 110.643 103.595C110.371 103.537 110.118 103.411 109.908 103.229C109.698 103.037 109.545 102.79 109.468 102.516C109.391 102.249 109.37 101.968 109.407 101.692L109.538 101.932C109.291 101.834 109.052 101.717 108.822 101.583C108.558 101.441 108.339 101.225 108.192 100.963C108.113 100.792 108.101 100.598 108.161 100.42C108.218 100.263 108.313 100.123 108.436 100.011C108.663 99.8047 108.951 99.6774 109.256 99.6487C109.718 99.6216 110.161 99.4539 110.526 99.1677C110.868 98.8697 111.08 98.4495 111.117 97.9967L111.119 98.0172L111.088 97.3531C111.094 97.1309 111.101 96.9085 111.115 96.687C111.157 96.242 111.258 95.8045 111.415 95.3863C111.571 94.9665 111.806 94.5811 112.108 94.2513C112.406 93.9217 112.782 93.6733 113.202 93.5295L113.215 93.5717C112.83 93.7524 112.494 94.0229 112.234 94.3606C111.978 94.6937 111.783 95.0702 111.659 95.4723C111.539 95.8751 111.469 96.2913 111.452 96.7114C111.446 96.922 111.449 97.1333 111.45 97.3437L111.505 97.9761L111.506 97.9911L111.506 97.9967C111.498 98.281 111.433 98.5609 111.315 98.8195C111.197 99.0782 111.028 99.3103 110.819 99.5021C110.389 99.858 109.86 100.073 109.305 100.119C109.101 100.137 108.909 100.22 108.756 100.356C108.69 100.415 108.639 100.488 108.605 100.569C108.594 100.602 108.589 100.636 108.592 100.67C108.594 100.705 108.603 100.738 108.618 100.769C108.725 100.949 108.878 101.097 109.061 101.199C109.267 101.324 109.482 101.435 109.704 101.529L109.861 101.599L109.835 101.768C109.805 101.98 109.817 102.195 109.871 102.401C109.922 102.603 110.028 102.786 110.178 102.93C110.528 103.205 110.968 103.339 111.412 103.305L111.623 103.303L111.589 103.513C111.531 103.813 111.575 104.123 111.713 104.394C111.799 104.518 111.913 104.618 112.047 104.687C112.181 104.755 112.33 104.789 112.48 104.785C112.815 104.8 113.164 104.804 113.506 104.814C113.849 104.825 114.192 104.83 114.535 104.832L114.629 104.832L114.61 104.927C114.573 105.103 114.588 105.285 114.652 105.453C114.687 105.534 114.737 105.607 114.8 105.669C114.863 105.73 114.938 105.779 115.02 105.811C115.378 105.922 115.761 105.93 116.123 105.833C116.492 105.738 116.848 105.595 117.18 105.408C117.519 105.22 117.887 105.068 118.189 104.865C118.801 104.444 119.26 103.835 119.498 103.13C119.614 102.783 119.676 102.42 119.679 102.054C119.651 101.676 119.66 101.295 119.601 100.917L119.597 100.891L119.6 100.868C119.675 100.449 119.791 100.038 119.949 99.642C120.021 99.4511 120.133 99.2449 120.201 99.078C120.269 98.8962 120.314 98.7061 120.333 98.5126C120.374 98.1086 120.386 97.7021 120.368 97.2964C120.354 96.8869 120.318 96.4766 120.275 96.0672L120.318 96.0591Z" fill="black"/>
<path d="M109.62 101.621L110.561 101.648C110.866 101.68 111.175 101.652 111.47 101.567C111.764 101.471 112.032 101.309 112.253 101.092L112.95 100.459L112.291 101.132C112.075 101.37 111.806 101.554 111.507 101.671C111.203 101.778 110.882 101.827 110.561 101.814L109.62 101.841V101.621Z" fill="black"/>
<path d="M111.418 103.37L112.405 103.394C112.726 103.384 113.039 103.294 113.316 103.132C113.591 102.955 113.833 102.731 114.032 102.472L114.695 101.731L114.074 102.507C113.884 102.785 113.647 103.028 113.374 103.226C113.087 103.416 112.757 103.53 112.414 103.559L111.418 103.59L111.418 103.37Z" fill="black"/>
<path d="M114.51 104.803C114.805 104.736 115.122 104.686 115.398 104.605C115.68 104.512 115.936 104.355 116.148 104.146C116.352 103.922 116.524 103.671 116.661 103.4L117.126 102.605L116.709 103.426C116.586 103.712 116.424 103.98 116.228 104.222C116.015 104.459 115.75 104.643 115.454 104.761C115.148 104.871 114.86 104.931 114.562 105.018L114.51 104.803Z" fill="black"/>
<path d="M117.285 94.325C117.37 94.3221 117.452 94.2859 117.511 94.2241C117.571 94.1623 117.604 94.0797 117.604 93.9938C117.604 93.9079 117.571 93.8254 117.511 93.7636C117.452 93.7018 117.37 93.6656 117.285 93.6626C117.199 93.6656 117.118 93.7018 117.059 93.7636C116.999 93.8254 116.966 93.9079 116.966 93.9938C116.966 94.0797 116.999 94.1623 117.059 94.2241C117.118 94.2859 117.199 94.3221 117.285 94.325Z" fill="black"/>
<path d="M122.979 81.6777C123.607 81.5455 124.227 81.3726 124.833 81.16C125.124 81.0519 125.405 80.9168 125.671 80.7564C125.914 80.6297 126.098 80.4117 126.182 80.1499L126.512 78.4065L126.574 80.1846C126.62 81.4977 126.484 82.813 126.51 84.1257C126.521 85.4385 126.649 86.7502 126.678 88.0642L126.71 90.0364L126.704 90.5304C126.706 90.7033 126.699 90.8762 126.682 91.0482C126.629 91.4188 126.471 91.7661 126.226 92.0486C125.98 92.3252 125.659 92.5236 125.302 92.6192C124.973 92.6994 124.637 92.7485 124.299 92.7661C123.959 92.7895 123.617 92.762 123.286 92.6845C123.118 92.6473 122.959 92.5762 122.819 92.4753C122.679 92.3744 122.562 92.246 122.473 92.098L122.511 92.0742C122.717 92.3158 123.01 92.4659 123.326 92.492C123.639 92.5293 123.957 92.5203 124.268 92.4652C124.581 92.4166 124.891 92.3471 125.194 92.2572C125.466 92.162 125.705 91.9927 125.886 91.7683C126.066 91.5439 126.18 91.2734 126.216 90.9873C126.231 90.8554 126.23 90.6855 126.234 90.5221L126.242 90.0316L126.283 88.0655C126.303 86.7539 126.402 85.4401 126.377 84.1275C126.365 82.8148 126.186 81.5049 126.179 80.1929L126.57 80.2277C126.516 80.4092 126.426 80.5776 126.304 80.7225C126.182 80.8674 126.032 80.9857 125.863 81.0701C125.567 81.2333 125.252 81.3599 124.926 81.4471C124.292 81.6192 123.64 81.7114 122.983 81.7216L122.979 81.6777Z" fill="black"/>
<path d="M129.31 68.6572C129.605 67.9405 130.113 67.3323 130.765 66.9153C131.099 66.7684 131.422 66.598 131.732 66.4052C132.027 66.1971 132.309 65.9705 132.576 65.7268C132.858 65.4895 133.132 65.245 133.399 64.9934C133.533 64.8695 133.664 64.7423 133.79 64.6118L133.976 64.4136C134.032 64.3495 134.096 64.279 134.176 64.1997C134.329 64.056 134.516 63.9523 134.718 63.898C134.921 63.8438 135.134 63.8405 135.338 63.8884C135.529 63.9334 135.706 64.0268 135.852 64.1598C135.997 64.2927 136.106 64.4608 136.168 64.6479C136.078 64.4942 135.952 64.3644 135.801 64.2694C135.65 64.1744 135.479 64.117 135.302 64.102C135.139 64.0862 134.974 64.1088 134.821 64.1678C134.668 64.2269 134.531 64.3208 134.421 64.4421C134.374 64.4987 134.318 64.5707 134.258 64.6521C134.199 64.7272 134.138 64.8011 134.075 64.873C133.95 65.017 133.822 65.1569 133.69 65.2927C133.424 65.5617 133.145 65.8146 132.862 66.0621C132.576 66.3162 132.272 66.5491 131.952 66.759C131.622 66.9462 131.275 67.1018 130.915 67.2239C130.595 67.3763 130.303 67.5825 130.052 67.8334C129.782 68.0869 129.534 68.3625 129.31 68.6572Z" fill="black"/>
<path d="M134.859 64.0083C134.935 64.7126 135.038 65.41 135.158 66.1018C135.275 66.7904 135.429 67.4723 135.619 68.1447C135.798 68.8063 136.066 69.4407 136.414 70.0307C136.564 70.3175 136.775 70.5682 137.031 70.7653C137.287 70.9624 137.584 71.1012 137.899 71.1722L137.91 71.1739L137.927 71.1781C138.056 71.216 138.192 71.2255 138.326 71.2062C138.46 71.1868 138.587 71.139 138.701 71.0658C138.915 70.8691 139.052 70.6019 139.086 70.3128C139.129 69.9962 139.136 69.6759 139.108 69.3576C139.09 69.0324 139.025 68.7117 138.983 68.3841C139.094 68.6955 139.183 69.0142 139.25 69.3379C139.326 69.6675 139.356 70.0061 139.34 70.3439C139.329 70.7151 139.175 71.0677 138.91 71.3269C138.76 71.4521 138.58 71.5355 138.388 71.5686C138.199 71.6013 138.006 71.5957 137.819 71.5521L137.847 71.5579C137.458 71.511 137.091 71.3568 136.784 71.1125C136.492 70.874 136.241 70.5878 136.043 70.266C135.671 69.64 135.398 68.9599 135.233 68.2498C135.063 67.5557 134.949 66.849 134.892 66.1365C134.83 65.4288 134.819 64.7176 134.859 64.0083Z" fill="black"/>
<path d="M133.291 65.3843C133.292 66.1702 133.331 66.9525 133.407 67.7312C133.477 68.5082 133.604 69.2789 133.788 70.037C133.959 70.7947 134.233 71.5252 134.602 72.2081C134.967 72.8984 135.507 73.4802 136.168 73.8951C135.451 73.5442 134.855 72.9868 134.456 72.2943C134.054 71.6073 133.757 70.8643 133.574 70.0896C133.396 69.3189 133.284 68.5343 133.239 67.7444C133.19 66.9576 133.207 66.1681 133.291 65.3843Z" fill="black"/>
<path d="M134.543 68.8744C134.628 68.8714 134.71 68.8352 134.769 68.7734C134.829 68.7116 134.862 68.629 134.862 68.5431C134.862 68.4572 134.829 68.3747 134.769 68.3129C134.71 68.2511 134.628 68.2149 134.543 68.2119C134.457 68.2149 134.376 68.2511 134.317 68.3129C134.257 68.3747 134.224 68.4572 134.224 68.5431C134.224 68.629 134.257 68.7116 134.317 68.7734C134.376 68.8352 134.457 68.8714 134.543 68.8744Z" fill="black"/>
<path d="M130.514 79.1183C131.008 78.1982 131.635 77.3569 132.376 76.6219C133.11 75.8643 133.963 75.2328 134.902 74.7525C135.138 74.6341 135.38 74.5276 135.627 74.4335L135.997 74.2965L136.169 74.2304L136.341 74.1572C136.804 73.9547 137.25 73.7169 137.676 73.446C138.542 72.9396 139.258 72.2122 139.752 71.338L139.758 71.3266C139.878 71.0745 139.96 70.8062 140.002 70.5303C140.047 70.2436 140.071 69.9541 140.075 69.6639C140.079 69.3702 140.064 69.0766 140.031 68.7848C139.996 68.4919 139.949 68.1997 139.895 67.9072L140.029 68.3328C140.066 68.477 140.104 68.6216 140.136 68.7676C140.199 69.0611 140.243 69.3584 140.269 69.6576C140.295 69.9601 140.291 70.2644 140.258 70.5663C140.23 70.8801 140.153 71.1876 140.031 71.4781L140.037 71.4669C139.571 72.4386 138.83 73.2519 137.907 73.8058C137.465 74.0961 137 74.3483 136.515 74.5599L136.331 74.6362L136.141 74.7068L135.783 74.835C135.546 74.9223 135.314 75.0216 135.087 75.1323C134.857 75.2349 134.641 75.3666 134.416 75.4822C134.202 75.6165 133.984 75.746 133.775 75.8906C133.353 76.1759 132.951 76.4892 132.571 76.8285C131.804 77.514 131.114 78.2819 130.514 79.1183Z" fill="black"/>
<path d="M134.99 66.0063C135.076 65.7111 135.204 65.4302 135.371 65.1724C135.539 64.9077 135.762 64.6827 136.025 64.5133C136.297 64.3411 136.618 64.2619 136.94 64.2878C137.256 64.3125 137.565 64.3996 137.847 64.5441L137.849 64.5446L137.864 64.5544C137.903 64.5802 137.948 64.5961 137.994 64.6008C138.011 64.6019 138.028 64.5986 138.043 64.5913C138.059 64.584 138.072 64.5729 138.082 64.5591C138.142 64.4641 138.175 64.3546 138.179 64.2421C138.192 63.9721 138.182 63.7015 138.149 63.4333C138.102 62.8701 138.1 62.304 138.145 61.7405C138.165 61.4494 138.216 61.1613 138.297 60.8812C138.322 60.8023 138.356 60.7265 138.397 60.6549C138.426 60.6005 138.466 60.5533 138.515 60.5167C138.564 60.4802 138.621 60.4552 138.681 60.4438C138.75 60.4373 138.819 60.451 138.88 60.4833C138.919 60.5021 138.956 60.5239 138.991 60.5485C139.059 60.5945 139.122 60.6477 139.178 60.7072C139.571 61.169 139.793 61.753 139.805 62.36C139.816 62.9237 139.824 63.4753 139.887 64.0044C139.895 64.0636 139.907 64.1222 139.922 64.1798C139.923 64.1966 139.951 64.2311 139.913 64.1864C139.905 64.1785 139.895 64.1721 139.885 64.1674C139.866 64.1564 139.844 64.1499 139.822 64.1484C139.788 64.1455 139.754 64.1538 139.724 64.172C139.695 64.1941 139.701 64.192 139.701 64.192C139.757 64.0793 139.807 63.9637 139.851 63.8457C139.947 63.592 140.029 63.3333 140.096 63.0707C140.244 62.5588 140.297 62.0239 140.251 61.4928C140.202 61.2028 140.197 60.907 140.236 60.6155C140.267 60.3155 140.361 60.0255 140.512 59.7649L140.587 59.6658C140.619 59.6347 140.655 59.605 140.69 59.5763C140.733 59.5507 140.779 59.5296 140.827 59.5133C140.88 59.5059 140.933 59.5046 140.986 59.5095C141.151 59.5621 141.292 59.6724 141.382 59.8202C141.546 60.0568 141.681 60.3125 141.784 60.5817C141.884 60.8518 141.946 61.1348 141.966 61.4224C141.977 61.565 141.977 61.7078 141.977 61.8476C141.972 61.9918 141.955 62.1353 141.926 62.2764C141.829 62.8251 141.671 63.3733 141.603 63.9038C141.602 63.916 141.602 63.9282 141.603 63.9404C141.598 63.9366 141.617 63.9394 141.57 63.9083C141.552 63.9033 141.563 63.9039 141.558 63.9045C141.584 63.8967 141.609 63.8862 141.633 63.8732C141.69 63.8411 141.744 63.8045 141.795 63.7636C141.9 63.6802 141.997 63.586 142.083 63.4827C142.252 63.2723 142.384 63.0333 142.47 62.777C142.602 62.2434 142.659 61.6942 142.642 61.1449C142.637 60.5841 142.663 60.0235 142.72 59.4657C142.745 59.1621 142.877 58.8773 143.093 58.6624C143.204 58.5493 143.34 58.464 143.49 58.4132C143.64 58.3625 143.8 58.3478 143.956 58.3703C144.122 58.4071 144.269 58.5007 144.372 58.6351C144.466 58.7593 144.535 58.9002 144.577 59.0504C144.655 59.3287 144.702 59.6149 144.717 59.9036C144.752 60.467 144.747 61.0321 144.703 61.5948C144.682 61.8755 144.655 62.1556 144.615 62.4376C144.596 62.5857 144.567 62.7324 144.528 62.8765L144.516 62.9249C144.517 62.9212 144.517 62.9172 144.515 62.9137C144.513 62.914 144.513 62.9062 144.504 62.8825C144.486 62.8516 144.458 62.8283 144.424 62.8167C144.378 62.8085 144.394 62.8166 144.41 62.8058C144.431 62.7964 144.451 62.7857 144.47 62.7738C144.668 62.6294 144.831 62.4419 144.947 62.2253C145.06 61.9997 145.125 61.7528 145.137 61.5007C145.188 60.964 145.188 60.4087 145.191 59.8533C145.194 59.5717 145.188 59.3026 145.211 58.9976L145.219 58.935L145.223 58.9038L145.238 58.8486C145.252 58.8035 145.271 58.7602 145.294 58.7195C145.326 58.6579 145.363 58.5899 145.403 58.5238C145.489 58.374 145.606 58.2444 145.747 58.1439C145.836 58.0857 145.938 58.0504 146.044 58.0412C146.15 58.032 146.257 58.0492 146.354 58.0911C146.519 58.1633 146.662 58.2778 146.769 58.4231C146.943 58.6858 147.055 58.9851 147.096 59.2979C147.182 59.8621 147.22 60.4327 147.209 61.0034L147.208 61.42L147.211 61.6135C147.218 61.6723 147.229 61.7306 147.243 61.7879C147.308 62.0783 147.336 62.3756 147.326 62.6729C147.316 62.9825 147.243 63.2867 147.113 63.5676C146.98 63.8528 146.773 64.0974 146.515 64.2766C146.034 64.6155 145.552 64.8758 145.066 65.1537L142.145 66.7632C141.171 67.2954 140.196 67.826 139.239 68.3863C138.762 68.6692 138.284 68.9494 137.817 69.2481C137.59 69.4043 137.354 69.5521 137.135 69.7201L136.808 69.9748L136.516 70.2655L136.481 70.2388L136.764 69.9256L137.08 69.6506C137.293 69.4687 137.521 69.3083 137.742 69.1382C138.197 68.8158 138.657 68.5004 139.127 68.2026C140.068 67.606 141.023 67.0356 141.981 66.4714L144.861 64.7983C145.334 64.5175 145.821 64.2275 146.246 63.9246C146.445 63.7784 146.605 63.5869 146.715 63.366C146.825 63.1452 146.88 62.9013 146.877 62.6546C146.883 62.3949 146.857 62.1355 146.799 61.8823C146.78 61.8049 146.766 61.726 146.758 61.6465C146.753 61.5642 146.752 61.4936 146.752 61.4228L146.751 61.0046C146.759 60.4618 146.721 59.9193 146.638 59.383C146.605 59.1426 146.524 58.9114 146.4 58.7032C146.343 58.6226 146.266 58.5577 146.178 58.5144C146.149 58.4991 146.116 58.4921 146.083 58.494C146.05 58.4959 146.019 58.5066 145.992 58.5252C145.907 58.5888 145.836 58.669 145.783 58.761C145.75 58.8129 145.72 58.867 145.687 58.9286C145.673 58.9534 145.64 59.0154 145.658 58.9887L145.658 58.9836L145.656 59.0042L145.651 59.0451C145.628 59.2948 145.628 59.5832 145.622 59.8579C145.612 60.415 145.606 60.9746 145.545 61.5458C145.523 61.8509 145.439 62.1482 145.297 62.419C145.147 62.6936 144.932 62.9271 144.67 63.0992C144.63 63.123 144.588 63.1435 144.545 63.1604C144.477 63.1901 144.402 63.1974 144.33 63.1815C144.296 63.1739 144.264 63.1586 144.236 63.1367C144.209 63.1148 144.187 63.087 144.172 63.0553C144.157 63.0313 144.148 63.004 144.147 62.9758C144.144 62.9548 144.143 62.9336 144.143 62.9124C144.144 62.8823 144.149 62.8524 144.159 62.8238L144.177 62.7581C144.213 62.6342 144.241 62.5082 144.261 62.3807C144.307 62.1129 144.34 61.8393 144.369 61.5659C144.426 61.0198 144.446 60.4703 144.427 59.9214C144.421 59.6536 144.385 59.3874 144.32 59.1275C144.304 59.0116 144.257 58.9024 144.183 58.8114C144.11 58.7203 144.014 58.6509 143.904 58.6105C143.785 58.5933 143.664 58.6036 143.549 58.6406C143.435 58.6776 143.33 58.7404 143.244 58.8241C143.057 59.0011 142.94 59.2399 142.915 59.4966C142.84 60.044 142.802 60.5959 142.801 61.1485C142.813 61.713 142.746 62.2764 142.604 62.8227C142.509 63.0938 142.367 63.3459 142.184 63.5672C142.094 63.679 141.992 63.7811 141.881 63.872C141.824 63.9187 141.763 63.9606 141.7 63.9973C141.663 64.0185 141.624 64.0346 141.582 64.0452C141.562 64.0492 141.54 64.0482 141.52 64.0422C141.456 64.0027 141.474 63.9858 141.462 63.9661C141.459 63.9437 141.458 63.9211 141.459 63.8985C141.524 63.3235 141.672 62.7959 141.761 62.2474C141.786 62.1157 141.801 61.982 141.803 61.8479C141.803 61.7114 141.796 61.575 141.782 61.4393C141.753 61.1716 141.686 60.9094 141.583 60.6606C141.478 60.413 141.344 60.179 141.183 59.9638C141.106 59.8736 141.014 59.7718 140.94 59.7664C140.88 59.7542 140.804 59.8105 140.742 59.9156C140.625 60.1435 140.555 60.3935 140.539 60.6496C140.512 60.9118 140.526 61.1766 140.579 61.4347C140.658 62.0126 140.616 62.6005 140.457 63.1614C140.389 63.4387 140.306 63.712 140.208 63.9801C140.157 64.1237 140.096 64.2635 140.027 64.3988C140.003 64.4375 139.972 64.4708 139.935 64.4965C139.891 64.5249 139.84 64.5382 139.788 64.5342C139.758 64.531 139.728 64.5223 139.701 64.5085C139.684 64.4983 139.668 64.4865 139.653 64.4732C139.604 64.4239 139.569 64.3624 139.551 64.2951C139.529 64.2188 139.513 64.141 139.501 64.0623C139.438 63.5017 139.412 62.9375 139.424 62.3735C139.42 61.8574 139.243 61.3577 138.919 60.9561C138.881 60.9139 138.838 60.876 138.791 60.8432C138.77 60.8278 138.747 60.8141 138.724 60.8024C138.698 60.7878 138.716 60.8007 138.723 60.7951C138.75 60.7872 138.72 60.7939 138.695 60.839C138.667 60.8878 138.644 60.9394 138.626 60.993C138.55 61.247 138.501 61.5082 138.479 61.7725C138.428 62.3187 138.414 62.8676 138.437 63.4157C138.463 63.701 138.463 63.9881 138.438 64.2735C138.426 64.4399 138.365 64.5989 138.261 64.7296C138.225 64.7685 138.181 64.7988 138.132 64.8181C138.083 64.8374 138.031 64.8453 137.978 64.8412C137.886 64.8316 137.798 64.7971 137.724 64.7415L137.74 64.7517C137.607 64.6953 137.478 64.6242 137.342 64.5783C137.207 64.5324 137.067 64.5017 136.925 64.4868C136.64 64.4478 136.351 64.5034 136.1 64.6449C135.846 64.7913 135.626 64.9916 135.457 65.2319C135.28 65.4732 135.137 65.738 135.032 66.0188L134.99 66.0063Z" fill="black"/>
<path d="M137.153 64.4971L135.187 61.7547L145.77 55.1724L149.555 58.273L146.998 59.9623L146.876 59.778L149.184 58.2537L145.753 55.4429L135.504 61.8179L137.332 64.3683L137.153 64.4971Z" fill="black"/>
<path d="M137.777 60.2737C137.917 59.8185 138.102 59.3787 138.331 58.9612C138.554 58.5351 138.823 58.1349 139.134 57.7677C139.299 57.5733 139.492 57.4041 139.706 57.2653C139.834 57.1838 139.981 57.1364 140.132 57.1276C140.221 57.1254 140.309 57.1447 140.389 57.1837C140.459 57.2211 140.521 57.2713 140.571 57.3317C140.671 57.4248 140.75 57.5384 140.803 57.6647C140.855 57.791 140.88 57.9271 140.876 58.0638C140.855 58.1917 140.801 58.3119 140.719 58.4123C140.637 58.5128 140.531 58.5899 140.41 58.6361C140.491 58.5644 140.556 58.4754 140.599 58.3757C140.642 58.276 140.663 58.1679 140.659 58.0593C140.615 57.8642 140.499 57.6933 140.334 57.5811C140.311 57.5561 140.283 57.5369 140.251 57.5252C140.22 57.5135 140.186 57.5097 140.152 57.514C140.07 57.5308 139.993 57.567 139.928 57.6197C139.755 57.7455 139.599 57.8934 139.464 58.0596C139.166 58.3946 138.897 58.7716 138.62 59.1441C138.347 59.5201 138.074 59.9003 137.777 60.2737Z" fill="black"/>
<path d="M121.619 121.687C121.579 121.543 117.65 107.345 117.023 105.588L117.23 105.513C117.86 107.278 121.792 121.484 121.831 121.628L121.619 121.687Z" fill="black"/>
<path d="M98.3309 144.102C98.2321 144.541 98.1044 144.97 97.9693 145.397C97.8343 145.825 97.6767 146.244 97.5215 146.665C97.3498 147.079 97.18 147.494 96.9764 147.896C96.8732 148.096 96.7653 148.294 96.6451 148.485C96.5826 148.58 96.5153 148.672 96.4434 148.759C96.3784 148.855 96.2803 148.923 96.1681 148.95C96.369 148.855 96.4501 148.621 96.5512 148.432C96.6499 148.234 96.7393 148.031 96.8226 147.824C96.9919 147.413 97.162 147.002 97.3167 146.584L97.8107 145.34C97.9785 144.926 98.146 144.512 98.3309 144.102Z" fill="black"/>
<path d="M103.664 147.951C103.575 148.328 103.453 148.696 103.299 149.051C103.223 149.227 103.147 149.402 103.065 149.575C102.988 149.751 102.89 149.915 102.828 150.1C102.816 149.902 102.842 149.704 102.903 149.516C102.956 149.328 103.02 149.145 103.096 148.966C103.242 148.605 103.433 148.264 103.664 147.951Z" fill="black"/>
<path d="M116.033 160.897C115.667 160.182 115.038 159.638 114.28 159.378C110.055 157.841 105.043 151.339 103.664 150.1C102.201 148.787 100.766 151.177 98.8657 151.651C96.9687 152.128 97.1997 149.349 95.6912 149.026C94.1862 148.703 93.2342 154.834 93.2342 154.834L92.2822 156.739C93.3147 157.536 96.1672 158.567 96.1672 158.567L97.2486 157.932C104.991 163.101 114.087 163.736 114.087 163.736C116.495 163.066 116.495 161.841 116.033 160.897ZM96.2721 156.841C95.9631 156.732 95.6625 156.601 95.3727 156.448C94.7951 156.145 94.2626 155.762 93.7907 155.311C94.3896 155.55 94.973 155.826 95.5372 156.139L96.3772 156.588C96.6546 156.745 96.9465 156.876 97.2487 156.978C96.9169 157.012 96.5818 156.965 96.2721 156.841ZM107.903 156.374C107.696 156.493 107.493 156.585 107.294 156.683C107.094 156.781 106.898 156.879 106.706 156.981C106.314 157.178 105.939 157.395 105.523 157.613C105.636 157.404 105.787 157.219 105.967 157.065C106.142 156.909 106.336 156.776 106.545 156.669C106.96 156.443 107.431 156.34 107.903 156.374H107.903ZM106.713 154.834C106.178 155.02 105.662 155.257 105.173 155.542C104.676 155.816 104.196 156.114 103.664 156.374C103.842 156.138 104.047 155.925 104.277 155.739C104.503 155.549 104.747 155.382 105.005 155.237C105.263 155.092 105.538 154.977 105.824 154.897C106.112 154.809 106.415 154.788 106.713 154.834ZM103.307 153.63C103.655 153.475 104.016 153.351 104.385 153.261C104.756 153.154 105.149 153.148 105.523 153.244C105.158 153.286 104.8 153.38 104.462 153.525C104.123 153.658 103.787 153.798 103.451 153.953C102.775 154.248 102.11 154.567 101.4 154.834C101.974 154.341 102.616 153.936 103.307 153.63V153.63ZM113.125 161.922C112.803 161.897 112.477 161.883 112.159 161.838C111.522 161.754 110.881 161.676 110.248 161.543C107.704 161.065 105.241 160.224 102.936 159.044C102.359 158.753 101.795 158.434 101.242 158.101C100.693 157.762 100.164 157.393 99.6567 156.995C100.749 157.669 101.883 158.273 103.052 158.802C105.38 159.87 107.81 160.7 110.304 161.28C111.546 161.585 112.813 161.778 114.087 161.978C113.765 161.964 113.443 161.943 113.125 161.922Z" fill="black"/>
<path d="M129.307 150.096C129.477 150.738 129.606 151.39 129.695 152.048C129.793 152.704 129.85 153.366 129.865 154.03C129.694 153.388 129.565 152.737 129.477 152.079C129.379 151.422 129.322 150.76 129.307 150.096Z" fill="black"/>
<path d="M135.402 149.805C135.548 150.4 135.645 150.998 135.752 151.592C135.803 151.89 135.858 152.186 135.92 152.479C135.95 152.624 135.989 152.768 136.034 152.91C136.055 152.98 136.083 153.048 136.119 153.112C136.134 153.145 136.157 153.174 136.187 153.194C136.216 153.215 136.251 153.227 136.287 153.228C136.248 153.238 136.206 153.236 136.168 153.221C136.13 153.207 136.097 153.182 136.073 153.148C136.02 153.089 135.974 153.024 135.935 152.954C135.863 152.817 135.802 152.673 135.754 152.525C135.66 152.232 135.587 151.933 135.535 151.631C135.427 151.028 135.382 150.416 135.402 149.805Z" fill="black"/>
<path d="M145.962 156.995C145.283 156.827 144.649 156.658 144.061 156.49C143.567 157.169 142.893 157.696 142.115 158.013C142.353 157.668 142.645 157.365 142.98 157.114C143.305 156.85 143.67 156.64 144.061 156.49C143.232 156.255 142.493 156.023 141.832 155.798C141.547 156.19 141.209 156.54 140.827 156.837C140.454 157.147 140.041 157.404 139.599 157.602C139.887 157.214 140.226 156.865 140.607 156.567C140.978 156.255 141.39 155.997 141.832 155.798C137.789 154.423 136.624 153.282 136.288 153.23C136.288 153.23 134.618 156.732 129.865 154.03C130.222 153.609 127.783 155.212 128.504 157.613C128.93 158.985 128.93 160.455 128.504 161.827H132.525C132.525 161.827 133.012 158.886 135.402 160.237L137.397 161.827C137.397 161.827 147.449 162.546 151.376 160.851C150.233 161.121 149.061 161.252 147.887 161.241C146.714 161.262 145.542 161.22 144.373 161.16C143.204 161.087 142.038 160.999 140.876 160.866C139.711 160.739 138.552 160.595 137.397 160.395C138.566 160.451 139.732 160.529 140.897 160.599L144.394 160.809C145.559 160.876 146.721 160.929 147.887 160.971C148.468 160.985 149.052 160.995 149.633 160.978C150.217 160.978 150.799 160.936 151.376 160.851C151.901 160.663 152.361 160.327 152.699 159.883C152.699 159.883 153.413 158.837 145.962 156.995ZM131.199 160.062C130.929 160.065 130.66 160.045 130.394 160.002C129.861 159.924 129.344 159.763 128.861 159.525C129.393 159.52 129.925 159.564 130.45 159.655C130.709 159.697 130.964 159.739 131.223 159.792C131.482 159.837 131.734 159.89 132.007 159.918C131.751 160.023 131.475 160.072 131.199 160.062ZM138.241 155.753C137.887 156.017 137.495 156.226 137.079 156.374C137.351 156.027 137.673 155.722 138.034 155.469C138.388 155.206 138.779 154.997 139.193 154.847C138.924 155.196 138.602 155.502 138.241 155.753V155.753Z" fill="black"/>
<path d="M120.034 39.8332C120.153 39.4709 120.291 39.1154 120.449 38.7683L120.669 38.2517C120.745 38.0802 120.798 37.8991 120.826 37.7134C120.883 37.905 120.886 38.1086 120.833 38.3015C120.79 38.4916 120.729 38.6774 120.651 38.8563C120.499 39.2131 120.29 39.543 120.034 39.8332Z" fill="black"/>
<path d="M124.368 36.4414C124.368 36.4414 121.398 38.6293 120.689 38.4628C120.689 38.4628 120.033 34.6395 120.835 33.1557C121.332 32.2356 122.253 28.7041 127.592 29.34C132.931 29.9759 133.301 35.1695 133.301 35.1695C132.814 35.2461 132.303 35.3096 131.768 35.355C130.289 35.4799 128.801 35.4532 127.328 35.2755C127.328 35.2755 126.112 33.4737 124.791 34.9575C124.515 35.403 124.368 35.9169 124.368 36.4414Z" fill="black"/>
<path d="M133.301 35.1694C133.192 35.8798 133.058 36.5874 132.979 37.2959C132.95 37.4576 132.944 37.6224 132.959 37.786C133.013 37.9439 133.087 38.0943 133.179 38.2337C133.363 38.5328 133.574 38.8213 133.771 39.1298C133.882 39.2912 133.972 39.4656 134.041 39.6492C134.063 39.7154 134.072 39.7854 134.067 39.8552C134.056 39.9329 134.026 40.0066 133.98 40.0696C133.898 40.1658 133.791 40.2372 133.671 40.2761C133.574 40.312 133.483 40.3346 133.404 40.3593C133.33 40.376 133.245 40.4277 133.277 40.407C133.285 40.3957 133.29 40.3829 133.292 40.3695C133.291 40.3502 133.289 40.3884 133.287 40.4032L133.278 40.4615C133.265 40.5147 133.254 40.5624 133.24 40.6089C133.213 40.7 133.183 40.789 133.152 40.8756C132.898 41.5665 132.563 42.2246 132.154 42.8361C131.748 43.4771 131.189 44.0066 130.528 44.3764C130.171 44.534 129.783 44.6053 129.394 44.5844C129.006 44.5636 128.627 44.4512 128.29 44.2564C128.127 44.1632 127.975 44.0516 127.837 43.9236L127.422 43.5671L127.216 43.3891C127.135 43.3248 127.101 43.2801 127.044 43.2654C126.899 43.2348 126.748 43.2632 126.623 43.3445C126.321 43.5157 126.056 43.7458 125.844 44.0214C125.621 44.2994 125.43 44.6021 125.275 44.9237C125.387 44.579 125.547 44.2518 125.75 43.9516C125.95 43.6372 126.211 43.3665 126.517 43.1558C126.603 43.0941 126.701 43.0509 126.805 43.029C126.908 43.007 127.015 43.0067 127.118 43.0282C127.177 43.0432 127.232 43.0706 127.279 43.1085C127.332 43.1455 127.354 43.1651 127.393 43.1942L127.604 43.3554L128.023 43.6772C128.343 43.9438 128.73 44.1151 129.142 44.1716C129.554 44.2282 129.973 44.1677 130.352 43.9971C130.937 43.6493 131.431 43.1655 131.791 42.5866C132.184 42.0071 132.51 41.3845 132.762 40.7307C132.794 40.6495 132.823 40.5688 132.85 40.4886L132.883 40.3767L132.885 40.3685C132.886 40.3612 132.887 40.3772 132.891 40.3359C132.895 40.2774 132.916 40.2215 132.951 40.1744C133 40.1099 133.067 40.0605 133.143 40.0318C133.192 40.0116 133.243 39.9947 133.294 39.9812C133.387 39.9558 133.47 39.9369 133.542 39.9128C133.594 39.8987 133.642 39.8728 133.682 39.8371C133.689 39.8275 133.694 39.817 133.697 39.8058C133.695 39.7859 133.692 39.7662 133.687 39.7469C133.635 39.592 133.567 39.4434 133.482 39.304C133.31 38.9976 133.113 38.695 132.939 38.3718C132.842 38.2056 132.768 38.0274 132.718 37.8418C132.703 37.6474 132.719 37.4518 132.767 37.2627C132.919 36.5544 133.095 35.8594 133.301 35.1694Z" fill="black"/>
<path d="M124.368 36.4414C124.417 36.7651 124.555 37.0686 124.767 37.3178C124.875 37.4298 125.006 37.5165 125.151 37.5715C125.309 37.6314 125.471 37.6788 125.636 37.7133C125.55 37.734 125.462 37.7493 125.373 37.7589C125.282 37.7624 125.191 37.7549 125.102 37.7366C124.914 37.7016 124.742 37.6089 124.609 37.4715C124.484 37.3353 124.396 37.1689 124.353 36.9884C124.311 36.8079 124.316 36.6194 124.368 36.4414Z" fill="black"/>
<path d="M127.328 35.2756C127.806 35.3825 128.278 35.5124 128.748 35.6459C129.218 35.7787 129.683 35.9306 130.15 36.072C130.613 36.2304 131.078 36.3798 131.537 36.5468C131.996 36.7139 132.455 36.8843 132.906 37.0782C132.427 36.9717 131.955 36.8417 131.485 36.7084C131.015 36.575 130.55 36.4239 130.083 36.2819C129.621 36.1229 129.156 35.9743 128.696 35.8067C128.237 35.6397 127.779 35.4692 127.328 35.2756Z" fill="black"/>
<path d="M130.922 37.9386C131.008 37.9356 131.089 37.8994 131.148 37.8376C131.208 37.7758 131.241 37.6933 131.241 37.6073C131.241 37.5214 131.208 37.4389 131.148 37.3771C131.089 37.3153 131.008 37.2791 130.922 37.2761C130.836 37.2791 130.755 37.3153 130.696 37.3771C130.636 37.4389 130.603 37.5214 130.603 37.6073C130.603 37.6933 130.636 37.7758 130.696 37.8376C130.755 37.8994 130.836 37.9356 130.922 37.9386Z" fill="black"/>
<path d="M132.403 36.3474L131.556 39.2087L132.189 39.3972L133.037 36.5359L132.403 36.3474Z" fill="black"/>
<path d="M126.337 41.9529C125.829 41.5493 125.48 40.9779 125.353 40.3406C125.285 40.0228 125.277 39.695 125.329 39.3742C125.378 39.0577 125.482 38.7523 125.636 38.4719C125.565 38.7741 125.519 39.0818 125.5 39.3918C125.482 39.6948 125.505 39.9989 125.568 40.2957C125.628 40.594 125.725 40.8836 125.857 41.1578C125.99 41.4384 126.15 41.7048 126.337 41.9529Z" fill="black"/>
<path d="M125.304 35.9655C125.386 36.004 125.456 36.0633 125.508 36.1375C125.535 36.1896 125.555 36.2408 125.508 36.2832C125.459 36.3255 125.347 36.3597 125.322 36.405C125.292 36.4497 125.322 36.5021 125.377 36.5578C125.428 36.6001 125.467 36.6555 125.489 36.718C125.512 36.7637 125.52 36.816 125.511 36.8665C125.467 36.9581 125.38 37.044 125.157 37.1123L125.091 37.1039C124.892 36.9811 124.83 36.8758 124.811 36.7763C124.814 36.7249 124.835 36.6763 124.869 36.6381C124.907 36.5832 124.958 36.5395 125.018 36.5115C125.086 36.4717 125.127 36.4285 125.11 36.3777C125.097 36.3273 124.997 36.266 124.961 36.2127C124.925 36.1596 124.958 36.1152 124.997 36.0717C125.066 36.013 125.149 35.9735 125.238 35.957L125.304 35.9655Z" fill="black"/>
<path d="M125.142 36.5468C124.76 37.4832 124.566 38.4865 124.574 39.4984C124.581 40.5102 124.789 41.5105 125.185 42.4411C125.632 43.3701 126.195 44.2406 126.709 45.1282C126.971 45.5692 127.229 46.0113 127.514 46.4283C127.651 46.6342 127.798 46.8329 127.956 47.0234C128.029 47.1102 128.108 47.1913 128.193 47.2661C128.247 47.316 128.312 47.3521 128.383 47.3714L128.247 47.429C128.422 47.244 128.565 47.0305 128.668 46.7975C128.777 46.5488 128.856 46.2876 128.903 46.0198C128.955 45.7458 128.98 45.4673 128.979 45.1883C128.98 45.0474 128.972 44.9059 128.97 44.7631L128.933 44.3351L128.976 44.3254C129.069 44.6018 129.138 44.8855 129.184 45.1736C129.225 45.4673 129.237 45.7643 129.22 46.0603C129.197 46.3626 129.134 46.6604 129.033 46.946C128.931 47.2504 128.766 47.5296 128.549 47.7649L128.494 47.8211L128.413 47.8224C128.227 47.8205 128.048 47.7537 127.906 47.6335C127.793 47.5447 127.69 47.4434 127.599 47.3315C127.426 47.1264 127.27 46.9081 127.131 46.6785C126.858 46.2293 126.607 45.7746 126.376 45.3108C125.907 44.3866 125.541 43.4162 125.064 42.5022C124.605 41.5828 124.173 40.5768 124.18 39.4998C124.176 38.9677 124.253 38.4382 124.406 37.9289C124.55 37.4205 124.787 36.9435 125.105 36.5225L125.142 36.5468Z" fill="black"/>
<path d="M128.42 47.597C128.58 49.436 128.708 51.2674 128.774 53.1047C128.797 54.0238 128.801 54.9462 128.879 55.8629C128.909 56.3221 128.981 56.7771 129.029 57.2342C129.094 57.6897 129.169 58.1436 129.244 58.5971C129.415 59.4937 129.554 60.4248 129.745 61.2886C129.851 61.7055 130.042 62.0961 130.305 62.4362C130.567 62.7763 130.897 63.0587 131.273 63.2659C132.063 63.6669 132.941 63.8609 133.825 63.8296C134.734 63.7883 135.635 63.6444 136.511 63.4003L136.524 63.4425C135.671 63.8202 134.766 64.0656 133.84 64.1705C132.883 64.2662 131.918 64.0949 131.052 63.6754C130.614 63.4441 130.233 63.1195 129.935 62.7245C129.648 62.3258 129.443 61.8738 129.333 61.3949C129.226 60.9146 129.186 60.4721 129.121 60.0093C129.061 59.5514 129.021 59.0911 128.979 58.6315C128.908 57.7107 128.832 56.7925 128.741 55.8757C128.648 54.9593 128.513 54.0456 128.418 53.1273C128.327 52.209 128.296 51.2865 128.286 50.3642C128.284 49.4417 128.296 48.5187 128.376 47.5969L128.42 47.597Z" fill="black"/>
<path d="M132.458 42.0661C132.001 42.0832 131.548 41.9819 131.142 41.7719C130.931 41.6679 130.746 41.517 130.601 41.3307C130.456 41.1443 130.387 40.9089 130.409 40.6731C130.476 40.8747 130.585 41.0597 130.729 41.2155C130.873 41.3714 131.049 41.4946 131.244 41.5768C131.637 41.7683 132.042 41.9319 132.458 42.0661Z" fill="black"/>
<path d="M122.231 52.9561C122.314 53.0385 122.376 53.1388 122.413 53.2492C122.46 53.3512 122.498 53.4567 122.527 53.5647C122.596 53.7769 122.653 53.9929 122.697 54.2117C122.805 54.6449 122.854 55.0875 122.936 55.5257L123.099 56.8503L123.216 58.179C123.294 59.0652 123.321 59.9535 123.376 60.841L123.468 63.5055C123.492 65.282 123.52 67.0594 123.498 68.8356L123.48 71.5004L123.411 74.1639C123.384 75.0516 123.37 75.9398 123.332 76.827L123.213 79.4884C123.139 81.2629 123.042 83.0361 122.941 84.809L122.387 95.4479L122.384 95.4962L122.343 95.5153C121.464 95.9183 120.524 96.1715 119.562 96.2645C118.597 96.3631 117.621 96.2699 116.692 95.9901C116.457 95.9299 116.227 95.8481 116.007 95.7457C115.779 95.6623 115.559 95.5597 115.348 95.4389L114.718 95.073C114.519 94.9341 114.332 94.779 114.138 94.6323L113.85 94.4091C113.758 94.3301 113.677 94.2394 113.59 94.155L113.077 93.6389C112.755 93.278 112.475 92.8806 112.173 92.5022L112.145 92.4675L112.143 92.4095C112.01 88.9908 111.946 85.5719 111.891 82.152C111.835 78.7321 111.847 75.3114 111.88 71.8907C111.924 68.4701 112.045 65.0509 112.245 61.6333C112.353 59.9255 112.483 58.2182 112.688 56.5175C112.794 55.6678 112.925 54.8202 113.101 53.9809C113.186 53.5601 113.293 53.1442 113.421 52.7348C113.535 52.3173 113.728 51.926 113.992 51.583L114.024 51.6131C113.778 51.9578 113.601 52.3472 113.503 52.7597C113.388 53.1696 113.295 53.5853 113.224 54.0051C113.075 54.844 112.976 55.6918 112.89 56.5405C112.715 58.2378 112.615 59.9432 112.536 61.6488C112.381 65.0612 112.352 68.4786 112.325 71.8951C112.291 75.312 112.323 78.7294 112.342 82.1469C112.365 85.5644 112.427 88.9824 112.49 92.3987L112.46 92.3062C112.748 92.6763 113.013 93.0679 113.319 93.4224L113.807 93.9288C113.89 94.0118 113.966 94.1015 114.054 94.179L114.328 94.398C114.512 94.5421 114.69 94.6953 114.879 94.8326L115.48 95.1943C115.681 95.3141 115.892 95.4163 116.11 95.4999C116.32 95.6025 116.54 95.685 116.766 95.7465C117.663 96.0326 118.607 96.139 119.545 96.0596C120.486 95.9874 121.407 95.7546 122.27 95.3713L122.226 95.4387C122.428 91.8941 122.632 88.3491 122.744 84.8003C122.807 83.0261 122.866 81.252 122.903 79.4773L123.03 74.1546C123.112 70.6064 123.171 67.0583 123.142 63.5107L123.104 60.8507C123.067 59.9654 123.058 59.0775 122.998 58.1936L122.92 56.8665L122.802 55.5428C122.736 55.1062 122.702 54.6619 122.609 54.2301C122.573 54.0123 122.525 53.7967 122.464 53.5845C122.438 53.4776 122.404 53.3728 122.363 53.2712L122.3 53.1197C122.274 53.0756 122.245 53.0341 122.212 52.9957L122.231 52.9561Z" fill="black"/>
</svg>
