<svg width="12" height="20" viewBox="0 0 12 20" fill="none" xmlns="http://www.w3.org/2000/svg">
<path d="M9.62586 19.6167C9.89618 19.8647 10.2253 20 10.6014 20C11.3888 20 12 19.4138 12 18.6697C12 18.2976 11.8472 17.9594 11.5769 17.7001L3.34966 9.98873L11.5769 2.29989C11.8472 2.04059 12 1.69109 12 1.33033C12 0.586246 11.3888 0 10.6014 0C10.2253 0 9.89618 0.135287 9.63761 0.383315L0.493634 8.95152C0.164545 9.24465 0 9.60541 0 10C0 10.3946 0.164545 10.7328 0.48188 11.0372L9.62586 19.6167Z" fill="#3A83F1"/>
</svg>
