<svg width="26" height="19" viewBox="0 0 26 19" fill="none" xmlns="http://www.w3.org/2000/svg">
<path d="M13.6782 18.1849C14.8193 16.7063 17 13.3739 17 9.5C17 4.25329 13 0 13 0C13 0 8.99997 4.25329 8.99997 9.5C8.99997 13.3739 11.1806 16.7063 12.3217 18.1849C12.6739 18.6412 13.326 18.6412 13.6782 18.1849Z" fill="white"/>
<path d="M19 9.4999C19 12.7215 17.6933 15.6585 16.2996 17.8749C18.1945 17.6208 20.8086 16.9247 22.6624 15.0578C25.8983 11.7989 25.592 6.20671 25.592 6.20671C25.592 6.20671 21.9608 6.00496 18.86 7.65111C18.9503 8.25439 19 8.87174 19 9.4999Z" fill="white"/>
<path d="M6.99996 9.4999C6.99996 8.87163 7.04966 8.25418 7.14 7.65079C4.03935 6.00499 0.408582 6.20671 0.408582 6.20671C0.408582 6.20671 0.102236 11.7989 3.33818 15.0578C5.19172 16.9244 7.80542 17.6206 9.70031 17.8748C8.30657 15.6584 6.99996 12.7215 6.99996 9.4999Z" fill="white"/>
</svg>
