<svg width="25" height="25" viewBox="0 0 25 25" fill="none" xmlns="http://www.w3.org/2000/svg">
<path fill-rule="evenodd" clip-rule="evenodd" d="M12.172 23.978L6.22292 18.0289L21.9564 2.2954C23.0516 3.39059 23.0516 5.16626 21.9564 6.26145C21.4436 6.77427 20.7816 7.04697 20.1101 7.07954L19.4977 7.69186L23.9779 12.172C24.343 12.5371 24.343 13.129 23.9779 13.4941L19.9734 17.4986L19.4684 16.9936C19.511 16.2248 19.2386 15.4419 18.6513 14.8546C17.5561 13.7594 15.7805 13.7594 14.6853 14.8546C13.5901 15.9498 13.5901 17.7254 14.6853 18.8206C15.2894 19.4247 16.1005 19.6956 16.8903 19.6333L17.3645 20.1075L13.494 23.978C13.129 24.343 12.5371 24.343 12.172 23.978ZM0.273799 12.0797L6.22292 18.0289L21.9564 2.2954C20.8612 1.2002 19.0855 1.20013 17.9903 2.29532C17.4775 2.80814 17.2048 3.47016 17.1722 4.14165L16.5599 4.75397L12.0797 0.273799C11.7146 -0.0912666 11.1228 -0.091266 10.7577 0.273799L6.75316 4.27833L7.25813 4.78329C8.02691 4.74072 8.80988 5.01308 9.39718 5.60037C10.4924 6.69557 10.4924 8.47123 9.39718 9.56643C8.30198 10.6616 6.52632 10.6616 5.43112 9.56643C4.82703 8.96234 4.55615 8.15122 4.61847 7.36146L4.14425 6.88725L0.273799 10.7577C-0.0912661 11.1228 -0.0912665 11.7146 0.273799 12.0797Z" fill="white"/>
</svg>
