<svg width="23" height="25" viewBox="0 0 23 25" fill="none" xmlns="http://www.w3.org/2000/svg">
<path d="M10.8511 7.83006C10.5593 6.60535 10.7921 5.47237 13.0217 3.24269C15.8359 0.42853 16.903 0.795403 18.6125 1.38312C19.0504 1.53366 19.5305 1.6987 20.0928 1.82847L15.8892 6.03207C16.2261 6.01148 16.5951 6.00098 17.0002 6.00098C20.9801 6.00098 21.4752 7.01497 22.2684 8.63934C22.4716 9.05543 22.6944 9.51157 23.0002 10.001H12.0007L11.9204 10.0015L3.8302 18.0917C3.70034 17.5289 3.5351 17.0486 3.38437 16.6105C2.79643 14.9013 2.42918 13.8338 5.24286 11.0201C5.64426 10.6187 6.01013 10.282 6.34742 10.0015H0.000976562C0.307061 9.51173 0.529867 9.05525 0.733114 8.63883C1.5259 7.01457 2.02111 6 6.00024 6C9.26952 6 10.1876 6.68487 10.8511 7.83006Z" fill="white"/>
<path d="M12.198 23.8054C12.1113 24.4275 12.583 25 13.2111 25H16.0937C16.6081 25 17.0406 24.6084 17.0758 24.0952C17.4391 18.794 16.3099 14.7602 14.9342 12H12.78L11.6462 13.1835C12.3317 16.0468 12.7383 19.9333 12.198 23.8054Z" fill="white"/>
</svg>
