<svg width="25" height="11" viewBox="0 0 25 11" fill="none" xmlns="http://www.w3.org/2000/svg">
<path fill-rule="evenodd" clip-rule="evenodd" d="M3.66269 0H18.7863C20.0599 0 20.5217 0.124306 20.9873 0.357726C21.4529 0.591145 21.8184 0.93368 22.0674 1.37014C22.3164 1.80659 22.449 2.23952 22.449 3.43338V7.56662C22.449 8.76048 22.3164 9.19341 22.0674 9.62986C21.8184 10.0663 21.4529 10.4089 20.9873 10.6423C20.5217 10.8757 20.0599 11 18.7863 11H3.66269C2.38909 11 1.92726 10.8757 1.46165 10.6423C0.99604 10.4089 0.630628 10.0663 0.381618 9.62986C0.132608 9.19341 0 8.76048 0 7.56662V3.43338C0 2.23952 0.132608 1.80659 0.381618 1.37014C0.630628 0.93368 0.99604 0.591145 1.46165 0.357726C1.92726 0.124306 2.38909 0 3.66269 0ZM3.6627 0.956528C2.65558 0.956528 2.30399 1.02017 1.94288 1.20121C1.6551 1.34548 1.43534 1.55147 1.28144 1.82124C1.08831 2.15974 1.02042 2.48932 1.02042 3.43338V7.56663C1.02042 8.5107 1.08831 8.84027 1.28144 9.17877C1.43534 9.44854 1.6551 9.65454 1.94288 9.79881C2.30399 9.97984 2.65558 10.0435 3.6627 10.0435H18.7863C19.7934 10.0435 20.145 9.97984 20.5061 9.79881C20.7939 9.65454 21.0137 9.44854 21.1676 9.17877C21.3607 8.84027 21.4286 8.5107 21.4286 7.56663V3.43338C21.4286 2.48932 21.3607 2.15974 21.1676 1.82124C21.0137 1.55147 20.7939 1.34548 20.5061 1.20121C20.145 1.02017 19.7934 0.956528 18.7863 0.956528H3.6627ZM25 5.44262C25 6.62542 23.4694 7.35566 23.4694 7.35566V3.52957C23.4694 3.52957 25 4.25981 25 5.44262Z" fill="black" fill-opacity="0.36"/>
<rect x="2.04077" y="1.8335" width="18.3673" height="7.33333" rx="1.6" fill="black"/>
</svg>
