<svg width="15" height="10" viewBox="0 0 15 10" fill="none" xmlns="http://www.w3.org/2000/svg">
<path fill-rule="evenodd" clip-rule="evenodd" d="M12.372 1.10915C12.3685 1.15451 12.3685 1.20827 12.3685 1.31579V8.68421C12.3685 8.79173 12.3685 8.84549 12.372 8.89085C12.4168 9.48192 12.8866 9.95167 13.4777 9.99655C13.523 9.99999 13.5768 9.99999 13.6843 9.99999C13.7918 9.99999 13.8456 9.99999 13.8909 9.99655C14.482 9.95167 14.9518 9.48192 14.9966 8.89085C15.0001 8.84549 15.0001 8.79173 15.0001 8.68421V1.31579C15.0001 1.20827 15.0001 1.15451 14.9966 1.10915C14.9518 0.518071 14.482 0.0483244 13.8909 0.00344429C13.8456 0 13.7918 0 13.6843 0C13.5768 0 13.523 0 13.4777 0.00344429C12.8866 0.0483244 12.4168 0.518071 12.372 1.10915ZM8.24561 3.55878C8.24561 3.45126 8.24561 3.3975 8.24905 3.35213C8.29393 2.76106 8.76368 2.29131 9.35475 2.24643C9.40011 2.24299 9.45387 2.24299 9.5614 2.24299C9.66892 2.24299 9.72268 2.24299 9.76804 2.24643C10.3591 2.29131 10.8289 2.76106 10.8737 3.35213C10.8772 3.3975 10.8772 3.45126 10.8772 3.55878V8.68421C10.8772 8.79173 10.8772 8.84549 10.8737 8.89085C10.8289 9.48193 10.3591 9.95167 9.76804 9.99655C9.72268 10 9.66892 10 9.5614 10C9.45387 10 9.40011 10 9.35475 9.99655C8.76368 9.95167 8.29393 9.48193 8.24905 8.89085C8.24561 8.84549 8.24561 8.79173 8.24561 8.68421V3.55878ZM4.21389 5.50168C4.21045 5.54704 4.21045 5.6008 4.21045 5.70832V8.68421C4.21045 8.79174 4.21045 8.8455 4.21389 8.89086C4.25877 9.48193 4.72852 9.95168 5.3196 9.99656C5.36496 10 5.41872 10 5.52624 10C5.63376 10 5.68752 10 5.73288 9.99656C6.32396 9.95168 6.7937 9.48193 6.83859 8.89086C6.84203 8.8455 6.84203 8.79173 6.84203 8.68421V5.70832C6.84203 5.6008 6.84203 5.54704 6.83859 5.50168C6.7937 4.9106 6.32396 4.44086 5.73288 4.39597C5.68752 4.39253 5.63376 4.39253 5.52624 4.39253C5.41872 4.39253 5.36496 4.39253 5.3196 4.39597C4.72852 4.44086 4.25877 4.9106 4.21389 5.50168ZM0.00344429 7.37083C0 7.41619 0 7.46995 0 7.57747V8.68421C0 8.79173 0 8.84549 0.00344429 8.89085C0.0483244 9.48193 0.518071 9.95168 1.10915 9.99656C1.15451 10 1.20827 10 1.31579 10C1.42331 10 1.47707 10 1.52243 9.99656C2.11351 9.95168 2.58326 9.48193 2.62814 8.89085C2.63158 8.84549 2.63158 8.79173 2.63158 8.68421V7.57747C2.63158 7.46995 2.63158 7.41619 2.62814 7.37083C2.58326 6.77976 2.11351 6.31001 1.52243 6.26513C1.47707 6.26168 1.42331 6.26168 1.31579 6.26168C1.20827 6.26168 1.15451 6.26168 1.10915 6.26513C0.518071 6.31001 0.0483244 6.77976 0.00344429 7.37083Z" fill="black"/>
</svg>
