<svg width="32" height="10" viewBox="0 0 32 10" fill="none" xmlns="http://www.w3.org/2000/svg">
<path d="M0.802734 3.04688H2.2207C2.2207 2.15625 2.80664 1.54688 3.72656 1.54688C4.61133 1.54688 5.13867 2.13867 5.13867 2.90625C5.13867 3.55078 4.88086 3.95508 3.81445 5.0332L0.884766 7.98047V9H6.75586V7.74609H2.93555V7.64648L4.75195 5.85938C6.20508 4.43555 6.63281 3.75 6.63281 2.76562C6.63281 1.35938 5.49023 0.333984 3.80859 0.333984C2.04492 0.333984 0.802734 1.44727 0.802734 3.04688ZM10.3174 9H11.8291V0.544922H10.3233L8.1143 2.09766V3.52148L10.2178 2.0332H10.3174V9ZM15.1563 3.52734C15.713 3.52734 16.0938 3.14062 16.0938 2.61914C16.0938 2.09766 15.713 1.71094 15.1563 1.71094C14.6055 1.71094 14.2188 2.09766 14.2188 2.61914C14.2188 3.14062 14.6055 3.52734 15.1563 3.52734ZM15.1563 7.82812C15.713 7.82812 16.0938 7.43555 16.0938 6.91992C16.0938 6.39844 15.713 6.01172 15.1563 6.01172C14.6055 6.01172 14.2188 6.39844 14.2188 6.91992C14.2188 7.43555 14.6055 7.82812 15.1563 7.82812ZM19.7491 5.22656H20.8097C21.8527 5.22656 22.4855 5.74805 22.4855 6.59766C22.4855 7.41797 21.7999 7.96875 20.8273 7.96875C19.8487 7.96875 19.1866 7.46484 19.1222 6.67969H17.6749C17.7452 8.20898 19.005 9.21094 20.8448 9.21094C22.673 9.21094 24.0323 8.15625 24.0323 6.70312C24.0323 5.54883 23.3116 4.80469 22.1632 4.62891V4.5293C23.0597 4.28906 23.6984 3.61523 23.7042 2.5957C23.7101 1.38281 22.6964 0.333984 20.8976 0.333984C19.0636 0.333984 17.9152 1.37109 17.839 2.85352H19.257C19.3214 2.00977 19.8956 1.54102 20.8155 1.54102C21.712 1.54102 22.2452 2.0918 22.2452 2.78906C22.2452 3.55664 21.6476 4.0957 20.7804 4.0957H19.7491V5.22656ZM28.5607 9.21094C30.4064 9.21094 31.6427 7.99805 31.6427 6.22852C31.6427 4.5293 30.4709 3.44531 29.0236 3.44531C28.1623 3.44531 27.5412 3.73828 27.1662 4.25977H27.0666L27.3009 1.78711H31.1916V0.544922H26.1232L25.6603 5.46094H27.0314C27.3185 4.9043 27.8752 4.57031 28.5959 4.57031C29.5275 4.57031 30.1838 5.24414 30.1838 6.25195C30.1838 7.28906 29.5275 7.98047 28.5548 7.98047C27.6935 7.98047 27.0431 7.45898 26.9494 6.66797H25.5373C25.6017 8.15039 26.8146 9.21094 28.5607 9.21094Z" fill="black"/>
</svg>
